P2
64 64
255
3
3
3
3
3
4
4
4
5
5
6
6
7
7
7
8
8
8
8
8
8
8
8
8
8
8
8
8
8
8
8
8
8
8
8
8
8
8
8
7
7
7
7
7
7
6
6
6
6
5
5
5
4
4
4
4
4
3
3
3
3
3
3
3
3
3
3
3
4
4
4
5
5
6
7
7
8
9
9
10
10
10
10
11
11
11
10
10
10
10
11
11
11
11
11
11
11
11
11
11
10
10
10
10
10
10
10
9
9
9
8
8
7
7
6
6
5
5
4
4
4
4
3
3
3
3
3
3
3
3
3
4
4
4
5
6
6
7
8
9
10
11
12
13
13
13
14
14
14
14
14
14
14
14
14
14
14
14
14
14
14
14
14
14
13
13
13
13
13
13
12
12
12
11
11
10
9
9
8
7
7
6
5
5
4
4
4
3
3
3
3
3
3
3
4
4
4
5
6
7
8
9
10
12
13
14
15
16
17
17
17
18
18
18
18
18
18
18
18
18
18
19
19
19
19
19
18
18
18
18
18
17
17
17
16
16
15
14
14
13
12
11
10
9
8
7
6
5
5
4
4
4
3
3
3
3
3
3
4
4
5
6
7
8
9
11
13
14
16
18
19
20
21
22
22
22
23
23
23
23
23
23
24
24
24
24
24
24
24
24
24
24
24
23
23
22
22
22
21
20
19
19
18
16
15
14
13
11
10
9
8
7
6
5
4
4
4
3
3
3
3
4
4
5
5
6
8
9
11
13
15
17
20
22
23
25
26
27
27
28
28
28
29
29
29
30
30
31
31
31
31
31
31
31
31
31
30
30
29
29
28
28
27
26
25
24
22
21
19
18
16
85
85
85
85
85
85
85
5
4
4
4
3
3
3
4
4
5
6
7
9
85
85
85
85
21
24
26
28
30
31
32
33
34
34
35
35
36
36
37
37
38
38
39
39
39
39
39
38
38
38
37
36
36
35
34
33
32
31
29
28
26
24
22
20
85
15
13
11
9
8
85
6
5
4
4
3
3
4
4
5
6
7
8
10
85
16
19
85
85
28
31
33
35
37
38
39
40
41
42
43
44
44
45
46
47
47
47
48
48
48
48
47
47
46
46
45
44
43
42
41
39
37
36
34
32
29
27
24
85
19
16
14
11
9
85
6
5
5
4
4
3
4
4
5
6
8
9
85
85
18
21
25
85
32
35
38
40
42
44
45
47
48
49
50
52
53
54
55
56
56
57
57
57
57
57
57
56
56
55
54
53
51
50
48
47
45
43
40
38
35
32
29
85
22
19
16
14
4
85
7
6
5
4
4
3
4
4
5
7
8
11
85
85
20
24
28
85
36
39
42
45
47
49
51
53
55
56
58
60
61
62
64
65
66
66
67
67
67
67
66
66
65
64
63
61
60
58
56
54
52
49
47
44
41
37
34
85
26
23
19
16
4
85
8
7
6
5
4
4
4
5
6
7
9
12
15
85
85
85
85
35
39
43
47
50
52
55
57
59
61
64
66
68
69
71
73
74
75
76
76
77
77
76
76
75
74
73
72
70
68
66
64
62
59
57
53
50
46
43
39
85
85
85
85
85
85
85
9
8
6
5
4
4
4
5
6
8
10
13
16
20
24
29
33
38
42
46
50
53
56
59
62
65
67
70
73
75
77
79
81
83
84
85
85
86
86
85
85
84
83
82
81
79
77
75
72
70
67
63
60
56
52
48
43
39
34
29
25
21
17
13
11
8
7
5
4
4
4
5
6
8
10
13
17
21
26
31
36
40
45
49
53
57
61
64
67
70
74
77
80
82
85
87
89
91
92
93
94
94
94
94
94
93
92
90
89
87
85
83
80
77
74
70
66
62
57
53
48
43
38
33
28
23
19
15
12
9
7
6
5
4
4
5
7
8
11
14
18
22
27
32
37
42
47
52
56
60
64
68
71
75
79
82
86
89
92
94
97
98
100
101
102
102
102
102
102
101
100
99
97
95
93
90
87
84
80
76
72
68
63
58
52
47
41
36
30
25
20
16
13
10
8
6
5
4
4
5
7
9
11
15
19
23
28
33
39
44
49
54
58
62
67
71
75
79
83
87
91
95
98
101
103
105
107
108
109
109
109
109
109
108
107
106
104
102
100
97
94
91
87
82
78
73
67
62
56
50
44
38
32
27
22
17
14
11
8
6
5
4
5
6
7
9
12
15
19
24
29
34
40
45
50
55
60
65
69
74
79
83
88
92
96
100
103
106
109
111
113
114
115
115
116
116
116
115
114
113
111
109
107
104
100
97
92
88
83
77
72
66
60
53
47
41
34
28
23
18
14
11
9
7
5
4
5
6
7
9
12
15
19
24
29
35
41
46
51
57
61
66
71
76
81
86
91
96
100
104
108
111
113
115
117
119
120
121
121
121
121
121
120
119
117
115
113
110
106
102
98
93
88
82
76
69
63
56
49
42
36
30
24
19
15
12
9
7
5
4
5
6
7
9
12
16
20
25
30
36
41
47
52
58
63
68
73
78
84
89
94
99
104
108
112
115
118
120
122
123
125
126
126
127
127
127
126
125
123
121
118
115
112
107
103
98
92
86
79
73
66
59
52
44
38
31
25
20
16
12
9
7
6
5
5
6
7
9
12
16
20
25
30
36
42
47
53
59
64
69
75
80
86
91
97
102
107
111
115
118
121
123
126
128
129
131
132
132
133
132
132
130
129
127
124
120
117
112
107
102
96
90
83
76
68
61
53
46
39
32
26
21
16
12
9
7
6
5
5
6
7
9
12
16
20
25
31
36
42
48
54
59
65
70
76
81
87
93
99
104
109
113
117
121
124
127
129
132
134
135
137
138
138
138
138
136
135
132
129
126
122
117
112
106
100
93
86
78
71
63
55
47
40
33
27
21
16
13
10
7
6
5
5
6
7
10
12
16
20
25
31
36
42
48
54
60
65
71
77
82
88
94
100
106
111
115
120
123
127
130
133
136
138
140
142
143
144
144
143
142
140
138
134
130
126
121
116
110
103
96
89
81
73
65
57
49
41
34
27
22
17
13
10
7
6
5
5
6
7
10
12
16
20
25
31
37
42
48
54
60
66
71
77
83
89
95
101
107
112
117
122
126
130
133
137
140
143
146
148
149
150
150
150
148
146
143
140
135
131
125
119
113
106
99
91
83
75
66
58
50
42
35
28
22
17
13
10
8
6
5
5
6
7
10
12
16
20
25
31
37
43
48
54
60
66
72
78
84
90
96
102
108
114
119
124
128
132
136
140
144
148
151
153
155
156
157
156
155
152
149
145
140
135
129
123
116
109
102
94
85
77
68
60
51
43
35
29
23
18
13
10
8
6
5
5
6
7
10
12
16
20
25
31
37
43
49
54
60
66
72
78
84
90
97
103
109
115
120
126
130
135
140
144
149
153
156
159
162
163
163
163
161
158
155
150
145
139
133
127
120
112
104
96
87
79
70
61
52
44
36
29
23
18
14
10
8
6
5
5
6
7
10
12
16
20
25
31
37
43
49
54
60
66
72
78
85
91
97
104
110
116
122
127
133
138
143
148
153
158
162
165
168
169
170
169
167
164
160
155
150
143
137
130
122
115
106
98
89
80
71
62
53
45
37
30
24
18
14
11
8
6
5
5
6
7
10
12
16
20
25
31
37
43
49
55
60
66
72
78
85
91
98
104
111
117
123
129
135
141
147
152
158
163
167
171
174
175
176
175
173
170
165
160
154
148
140
133
125
117
109
100
91
82
72
63
54
46
38
30
24
19
14
11
8
6
5
5
6
7
10
12
16
20
25
31
37
43
49
55
60
66
72
79
85
92
98
105
112
118
124
131
137
143
150
156
162
167
172
176
179
181
181
180
178
175
170
164
158
151
143
136
127
119
110
101
92
83
74
64
55
46
38
31
25
19
15
11
8
6
5
5
6
7
10
12
16
20
25
31
37
43
49
55
61
66
72
79
85
92
99
105
112
119
125
132
139
145
152
159
165
171
176
181
184
186
186
185
183
179
174
168
161
154
146
138
129
121
112
103
93
84
75
65
56
47
39
32
25
19
15
11
9
7
5
5
6
7
10
12
16
20
25
31
37
43
49
55
61
67
73
79
85
92
99
106
113
120
126
133
140
147
154
161
168
174
180
184
188
189
190
189
186
182
177
171
164
156
148
140
131
122
113
104
95
85
76
66
57
48
40
32
26
20
15
12
9
7
5
5
6
7
10
12
16
20
25
31
37
43
49
55
61
67
73
79
86
92
99
106
113
120
127
134
141
149
156
163
170
177
182
187
190
192
193
191
189
185
179
173
166
158
149
141
132
123
114
105
95
86
76
67
58
49
40
33
26
20
16
12
9
7
5
5
6
7
10
12
16
20
25
31
37
43
49
55
61
67
73
79
86
92
99
106
113
121
128
135
142
150
157
164
171
178
183
188
191
193
194
193
190
186
180
174
166
158
150
141
132
124
114
105
96
86
77
67
58
49
41
33
27
21
16
12
9
7
6
5
6
7
10
12
16
20
25
31
37
43
49
55
61
67
73
79
86
93
100
107
114
121
128
135
142
150
157
164
171
178
183
188
191
193
194
193
190
186
180
174
166
158
150
141
132
123
114
105
96
87
77
68
58
50
41
34
27
21
16
12
9
7
6
5
6
7
10
12
16
20
25
31
37
43
49
55
61
67
73
80
86
93
100
107
114
121
128
135
142
149
156
164
170
177
182
187
190
192
192
191
188
184
179
172
165
157
149
141
132
123
114
105
96
87
77
68
59
50
42
34
27
21
16
13
10
7
6
5
6
7
10
12
16
20
25
31
37
43
49
55
61
67
74
80
86
93
100
107
114
121
127
134
141
148
155
162
168
174
180
184
187
189
189
188
185
181
176
170
163
155
147
139
131
122
114
105
96
87
77
68
59
50
42
34
27
22
17
13
10
7
6
5
6
7
10
12
16
20
26
31
37
43
49
55
62
68
74
80
87
94
100
107
114
120
127
133
140
146
153
159
165
171
176
180
183
184
185
183
181
177
172
166
160
153
145
137
129
121
113
104
95
86
77
68
59
50
42
34
28
22
17
13
10
7
6
5
6
7
10
12
16
21
26
31
37
43
49
56
62
68
74
81
87
94
101
107
114
120
126
132
138
144
150
156
162
167
171
175
178
179
179
178
176
172
168
162
156
150
143
135
128
120
112
104
95
86
77
68
59
50
42
34
28
22
17
13
10
7
6
5
6
7
10
12
16
21
26
31
37
43
50
56
62
69
75
82
88
95
101
108
114
120
125
131
136
142
147
152
157
162
166
169
172
173
173
172
170
167
162
157
152
146
139
133
126
118
111
103
94
85
77
68
59
50
42
34
28
22
17
13
10
7
6
5
6
7
10
12
16
21
26
31
37
44
50
56
63
69
76
82
89
95
102
108
114
119
124
129
134
139
144
148
153
157
161
163
165
167
167
166
164
161
157
153
148
142
136
130
124
117
109
101
93
85
76
67
58
50
42
34
28
22
17
13
10
7
6
5
6
7
10
12
16
21
26
31
37
44
50
57
63
70
76
83
89
96
102
108
113
119
123
128
132
136
141
144
148
152
155
157
159
160
160
159
157
155
152
148
143
138
133
127
121
115
108
100
92
84
75
67
58
50
42
34
28
22
17
13
10
7
6
5
6
7
10
12
16
21
26
31
37
44
50
57
63
70
76
83
90
96
102
108
113
118
122
126
130
133
137
140
143
146
149
151
152
153
153
152
151
149
146
143
139
134
130
124
119
113
106
99
91
83
75
66
58
49
41
34
28
22
17
13
10
7
6
5
6
7
10
12
16
21
26
31
37
44
50
57
64
70
77
83
90
96
102
107
112
117
121
124
128
131
134
136
139
141
143
145
146
147
147
146
145
143
141
138
134
131
126
122
116
110
104
97
89
82
73
65
57
49
41
34
27
22
17
13
10
7
6
5
6
7
9
12
16
20
26
31
37
44
50
57
63
70
77
83
89
96
101
107
111
116
119
123
125
128
130
133
135
137
138
140
140
141
141
140
139
138
136
133
130
127
123
119
114
108
102
95
88
80
72
64
56
48
41
34
27
21
17
13
10
7
6
5
6
7
9
12
16
20
25
31
37
44
50
57
63
70
76
83
89
95
101
106
110
114
118
121
123
125
127
129
131
132
133
134
135
135
135
135
134
133
131
129
126
123
120
116
111
106
100
93
86
79
71
63
55
48
40
33
27
21
17
13
10
7
6
5
6
7
9
12
16
20
25
31
37
43
50
56
63
69
76
82
88
94
99
104
108
112
115
118
120
122
124
125
127
128
129
130
130
130
130
130
129
128
127
125
122
120
116
112
108
103
97
91
84
77
70
62
54
47
40
33
27
21
16
13
10
7
6
5
6
7
9
12
15
20
25
30
36
42
49
55
62
68
74
80
86
92
97
102
106
110
113
115
117
119
120
122
123
124
124
125
125
126
126
125
125
124
122
120
118
116
113
109
105
100
94
88
82
75
68
61
53
46
39
32
26
21
16
12
10
7
6
5
6
7
9
12
15
19
24
30
36
42
48
54
61
67
73
79
84
90
95
99
103
107
109
112
114
115
116
117
118
119
120
120
121
121
121
120
120
119
118
116
114
111
109
105
101
96
91
85
79
73
66
59
52
45
38
32
26
20
16
12
9
7
6
4
5
7
9
11
15
19
24
29
35
41
47
53
59
65
70
76
81
86
91
95
99
102
105
107
109
111
112
113
114
114
115
115
115
116
115
115
114
114
112
111
109
107
104
101
97
92
87
82
76
70
64
57
50
44
37
31
25
20
16
12
9
7
6
4
5
7
9
11
14
18
23
28
33
39
45
51
57
62
68
73
78
83
87
91
95
98
100
102
104
106
107
108
108
109
110
110
110
110
110
110
109
108
107
106
104
102
99
96
92
88
83
78
73
67
61
55
49
42
36
30
25
20
15
12
9
7
6
4
5
6
8
10
14
17
22
26
32
37
43
49
54
59
65
70
74
79
83
86
90
92
95
97
98
100
101
101
102
103
103
104
104
104
104
104
103
102
101
100
98
96
93
90
87
83
79
74
70
64
59
53
47
41
35
29
24
19
15
11
9
7
5
4
5
6
8
10
13
16
20
25
30
35
41
46
51
56
61
66
70
74
78
81
84
87
89
91
92
94
95
95
96
97
97
98
98
98
98
97
97
96
95
93
92
90
87
85
82
78
74
70
66
61
56
50
45
39
33
28
23
18
14
11
9
7
5
4
5
6
7
9
4
4
4
4
28
33
4
4
4
4
57
61
65
69
72
75
78
80
82
84
85
86
87
88
89
90
90
90
91
91
90
90
89
89
87
86
85
83
81
79
76
73
69
66
62
57
53
47
42
37
31
26
21
17
13
10
8
6
5
4
4
5
7
8
4
4
4
4
4
4
4
4
4
4
53
57
60
64
67
69
72
74
76
77
78
79
80
81
82
83
83
83
83
83
83
83
82
81
80
79
78
76
74
72
70
67
64
61
57
53
49
44
39
34
29
85
20
16
13
10
8
6
5
4
4
5
6
8
4
255
4
4
4
4
4
255
4
4
48
52
55
58
61
63
65
67
68
70
71
72
73
74
74
75
75
76
76
76
75
75
74
73
72
71
70
69
67
65
63
61
59
56
52
49
45
41
36
31
85
85
85
15
12
9
7
6
5
4
4
5
6
7
9
4
255
4
4
4
255
4
4
40
43
47
50
52
55
57
58
60
61
62
63
64
65
66
67
67
67
68
68
68
67
67
66
66
65
64
63
62
60
59
57
55
53
50
48
44
41
37
33
85
85
20
85
13
11
8
7
5
4
3
4
4
5
6
8
9
4
255
4
255
4
4
32
35
38
41
44
46
48
50
52
53
54
55
56
57
58
58
59
60
60
60
60
60
59
59
58
58
57
56
55
54
53
52
51
49
47
45
42
39
36
33
85
25
22
18
85
12
9
8
6
5
4
3
4
4
5
6
7
4
4
4
255
4
4
4
4
30
33
36
38
40
42
43
45
46
47
48
49
50
50
51
52
52
52
52
52
52
52
51
51
50
49
48
48
47
46
45
44
42
41
39
37
34
31
85
25
22
19
16
85
10
8
7
6
5
4
3
3
4
4
5
4
4
4
255
4
255
4
4
4
4
28
30
32
34
35
37
38
39
40
41
41
42
43
43
44
44
44
44
44
44
44
43
43
42
41
41
40
40
39
38
37
36
35
33
31
29
85
85
21
19
16
13
11
85
7
6
5
4
4
3
3
4
4
4
4
4
255
4
4
4
255
4
4
4
23
25
27
28
29
30
31
32
33
34
35
35
36
36
37
37
37
37
37
37
37
36
35
35
34
34
33
33
32
31
31
30
29
28
26
24
85
85
85
85
85
11
9
85
6
5
5
4
4
3
3
3
4
4
4
255
4
4
9
10
4
255
4
4
19
20
22
23
24
25
26
27
27
28
28
29
29
30
30
31
31
31
31
30
30
30
29
29
28
28
27
27
26
26
25
24
24
22
21
20
18
16
15
13
11
85
85
85
85
5
4
4
3
3
3
3
3
4
4
5
5
6
7
8
9
11
12
14
15
16
17
18
19
20
21
21
22
22
23
23
24
24
24
25
25
25
25
24
24
24
23
23
22
22
21
21
21
20
20
19
19
18
17
16
15
13
12
10
9
8
7
85
85
4
4
4
3
3
3
3
3
4
4
4
5
5
6
7
8
9
10
11
12
13
14
14
15
16
16
17
17
18
18
19
19
19
20
20
20
20
20
19
19
19
18
18
18
17
17
17
16
16
16
15
15
14
13
12
12
10
9
8
7
6
6
5
4
4
4
3
3
3
3
3
3
3
3
4
4
4
5
6
6
7
8
9
9
10
11
11
12
12
13
13
13
14
14
14
15
15
15
15
15
15
15
15
15
15
14
14
14
14
13
13
13
13
12
12
12
11
10
10
9
8
8
7
6
5
5
4
4
4
3
3
3
3
3
3
3
3
3
3
4
4
4
5
5
6
6
7
7
8
8
9
9
10
10
10
10
11
11
11
12
12
12
12
12
12
12
12
12
11
11
11
11
10
10
10
10
10
10
9
9
9
8
8
7
7
6
6
5
5
4
4
4
3
3
3
3
3
3
3
3
3
3
3
3
4
4
4
4
5
5
5
6
6
6
6
7
7
7
7
8
8
8
8
9
9
9
9
9
9
9
9
9
8
8
8
8
7
7
7
7
7
7
7
7
6
6
6
6
5
5
5
4
4
4
4
3
3
3
3
3
