P2
4 4
255
41
41
136
41
136
200
200
41
41
200
253
136
41
136
41
41
