P2
32 64
255
0
0
0
0
0
0
0
0
0
0
0
0
0
0
0
0
0
0
0
0
0
0
0
0
0
0
0
0
0
0
0
0
0
0
0
0
0
0
0
0
0
0
0
0
0
0
0
0
0
0
0
0
0
0
0
0
0
0
0
0
0
0
0
0
0
0
0
0
0
0
0
0
0
0
0
0
0
0
0
0
1
0
2
5
1
1
0
2
0
0
0
0
0
0
0
0
0
0
0
0
0
0
1
2
1
4
11
6
10
5
3
8
16
11
17
26
9
12
8
11
3
4
1
0
0
0
0
0
0
0
0
0
0
0
7
15
19
33
34
26
38
29
29
41
51
56
46
52
28
37
28
18
4
8
4
1
0
0
0
0
0
0
0
0
1
3
8
19
53
44
50
48
40
44
63
72
73
90
80
61
49
56
35
14
10
5
1
1
1
0
0
0
0
0
0
0
3
14
23
41
47
75
77
99
81
85
99
87
118
103
119
76
91
47
54
38
33
12
6
4
1
0
0
0
0
0
0
2
7
12
26
84
69
111
104
111
126
127
133
124
174
105
134
108
129
78
73
55
24
7
10
12
6
2
0
0
0
0
0
1
4
7
37
81
89
139
123
135
144
144
143
147
184
118
133
103
106
92
87
69
37
18
6
7
3
2
0
0
0
0
0
0
4
16
36
53
101
131
141
166
174
175
174
164
156
151
148
108
108
145
99
67
45
40
18
11
5
1
0
0
0
0
0
0
3
15
43
65
128
141
154
194
193
196
192
188
152
162
184
140
140
177
146
78
35
28
15
5
1
1
0
0
0
0
0
0
2
11
35
62
143
176
184
194
180
196
191
205
197
176
181
135
105
134
141
85
29
12
11
8
4
0
0
0
0
0
0
0
0
5
27
67
124
167
179
198
181
205
187
196
194
173
183
140
125
83
82
66
33
7
3
3
2
0
0
0
0
0
0
0
0
7
30
65
92
166
171
188
179
207
200
206
192
171
170
129
120
123
91
75
24
4
1
0
0
0
0
0
0
0
0
0
0
5
18
45
106
165
172
188
171
186
196
205
197
185
185
132
80
100
76
47
18
11
6
1
0
0
0
0
0
0
0
0
0
2
13
50
94
126
181
184
163
196
207
198
192
166
156
135
125
125
82
51
11
10
8
2
1
0
0
0
0
0
0
0
1
4
19
50
98
109
156
190
194
207
211
198
187
167
140
115
121
114
59
47
42
15
10
2
1
0
0
0
0
0
0
0
1
6
17
40
99
143
168
194
191
196
193
200
191
169
170
147
127
105
62
51
60
21
8
1
1
0
0
0
0
0
0
0
1
7
14
35
98
132
154
201
195
192
178
196
193
186
183
138
93
72
55
48
34
16
5
1
1
0
0
0
0
0
0
0
2
10
24
58
81
110
173
201
178
208
211
215
210
201
197
154
146
99
40
19
6
7
6
1
0
0
0
0
0
0
0
1
4
6
18
79
110
134
178
195
173
207
213
211
219
205
195
142
139
133
90
43
8
2
2
1
0
0
0
0
0
0
0
0
2
7
33
73
100
144
168
168
166
186
173
187
203
183
167
126
92
67
43
20
5
2
1
0
0
0
0
0
0
0
0
0
3
14
33
45
74
92
105
104
124
126
112
129
134
123
122
103
73
57
32
20
6
1
0
0
0
0
0
0
0
0
0
0
3
9
21
39
86
90
94
87
112
114
111
117
95
71
58
43
36
35
29
19
7
2
1
0
0
0
0
0
0
0
0
0
1
5
17
45
80
75
87
80
69
54
61
66
50
46
43
32
28
29
34
31
11
2
0
0
0
0
0
0
0
0
0
0
1
3
11
24
38
46
56
40
26
31
34
36
33
33
33
29
36
35
38
32
11
2
0
0
0
0
0
0
0
0
0
0
1
2
6
14
22
27
33
22
15
18
19
19
19
24
28
31
41
40
26
13
4
1
0
0
0
0
0
0
1
0
1
1
1
2
6
14
21
28
34
28
23
26
33
34
40
40
39
35
32
30
21
8
1
1
0
0
0
0
0
0
1
1
1
2
4
5
8
14
18
26
34
35
37
37
42
43
44
45
42
36
24
18
13
6
1
1
0
0
0
0
0
0
3
4
2
2
4
5
5
9
14
21
24
24
28
29
31
33
31
31
32
32
29
24
16
7
2
1
1
2
1
1
2
1
11
9
7
6
2
4
5
6
10
13
16
14
15
15
17
19
21
23
24
23
22
18
14
10
7
3
4
5
4
5
6
3
8
7
4
6
5
4
6
8
7
12
13
14
15
16
19
18
18
15
14
14
12
10
8
5
2
3
2
2
4
3
3
2
7
5
5
6
6
7
9
10
14
16
20
23
23
24
27
28
27
24
21
19
19
16
14
10
6
4
6
5
6
4
4
5
13
7
10
10
11
12
15
18
25
26
27
30
32
33
33
34
33
33
31
30
28
27
21
16
15
13
12
13
12
11
10
14
39
25
33
33
36
40
47
56
61
63
64
69
74
74
80
82
82
82
76
69
61
50
38
33
31
25
23
30
25
23
21
23
84
89
91
93
94
106
123
133
129
143
162
170
191
204
216
209
213
212
197
190
180
163
158
149
125
103
92
90
82
93
79
78
87
97
98
98
95
107
122
139
151
156
170
174
188
207
213
212
209
204
212
196
177
153
147
141
114
98
94
80
78
94
90
84
83
99
99
97
98
105
118
143
162
168
173
186
187
201
211
211
214
201
211
205
180
156
137
126
111
101
95
88
94
97
90
87
95
97
99
98
103
112
126
145
158
168
181
188
198
209
217
214
219
209
210
208
198
173
138
124
114
103
95
97
100
100
97
95
100
97
98
100
105
112
127
159
169
166
182
186
196
205
221
219
224
217
215
213
203
188
152
129
116
108
101
100
99
99
97
99
99
92
97
100
106
113
131
159
172
171
182
177
192
208
213
228
229
226
215
217
193
178
169
147
132
115
102
100
94
95
97
98
93
93
98
99
105
119
138
155
157
164
191
174
201
221
215
229
226
217
211
221
210
194
183
157
125
113
102
100
98
96
92
99
89
95
100
101
103
115
136
152
158
167
184
169
203
220
215
220
221
213
209
211
210
192
183
167
141
120
104
96
97
99
97
99
91
98
99
99
103
108
125
144
161
164
167
171
188
198
215
214
217
217
217
209
214
194
164
145
133
116
104
99
98
99
98
97
90
96
98
97
101
108
119
128
144
165
162
172
196
198
212
213
216
204
203
204
199
185
172
156
136
119
104
98
99
99
96
93
81
89
95
98
97
108
123
129
137
165
173
174
195
206
214
213
218
208
191
205
196
177
166
152
130
107
100
98
99
96
92
93
79
95
87
98
94
100
116
140
136
161
181
175
188
211
213
218
213
214
199
191
183
157
148
142
129
111
100
101
97
99
96
93
78
99
89
99
98
101
113
120
134
165
175
188
197
212
210
227
213
215
199
188
179
150
128
119
118
102
98
100
95
97
97
87
79
94
88
98
99
104
134
121
148
166
169
198
200
226
210
231
222
213
194
192
190
162
155
141
123
112
98
93
91
96
96
91
80
76
81
94
89
106
132
127
153
162
184
202
199
231
214
216
212
219
216
206
205
170
157
141
128
107
97
69
97
91
87
93
87
86
91
92
85
98
115
126
145
165
193
199
210
223
228
223
214
227
231
219
213
187
155
127
124
108
99
96
97
97
86
91
82
84
98
96
96
113
113
130
171
157
196
204
217
211
223
228
221
223
233
224
203
161
157
145
127
105
98
95
95
95
90
91
90
75
93
88
82
108
107
132
192
158
189
191
213
208
209
232
222
214
215
228
214
188
181
182
138
112
98
92
85
91
95
84
95
91
88
93
86
93
90
127
169
145
173
171
201
216
208
223
221
218
208
219
206
171
137
157
138
122
105
96
86
91
92
90
89
90
82
84
88
93
98
122
118
127
162
166
186
222
210
204
206
205
196
190
180
165
128
123
113
105
80
75
77
95
89
99
85
74
90
84
86
88
94
117
99
129
164
147
160
200
186
174
183
187
192
164
149
149
163
166
159
129
107
82
95
86
81
95
87
67
83
71
81
70
75
105
95
135
159
123
142
164
163
164
170
159
169
171
150
127
134
153
142
109
87
84
91
78
74
75
67
65
71
59
68
86
76
92
88
99
130
109
131
130
129
145
140
130
144
158
159
119
103
117
121
109
87
82
89
88
85
76
57
54
58
73
58
91
77
77
77
82
104
94
103
103
106
122
120
108
114
116
129
124
99
84
87
96
76
75
82
77
88
80
82
76
80
78
50
74
68
84
70
81
101
97
86
96
107
108
104
102
85
93
104
101
85
75
70
74
85
83
91
83
90
88
74
74
69
53
51
57
74
90
88
82
77
85
77
95
88
78
91
91
80
85
95
98
80
86
93
88
94
93
88
76
90
84
51
58
56
36
44
59
57
70
86
86
53
81
91
84
69
71
75
82
87
98
86
90
85
82
81
79
89
80
72
70
73
73
48
74
69
68
72
68
47
44
73
77
51
75
87
78
59
65
72
63
87
94
74
81
94
87
64
65
64
65
87
97
93
93
40
54
51
51
59
53
44
44
63
61
46
49
63
73
82
80
72
51
75
80
63
59
74
83
80
76
75
62
79
93
86
76
