P2
8 8
255
32
96
96
32
0
0
0
0
96
223
223
96
0
0
0
0
96
223
252
255
255
252
25
0
32
96
255
255
255
255
50
0
0
0
255
255
255
255
138
22
0
0
252
255
255
252
233
47
0
0
0
0
125
233
175
28
0
0
0
0
22
47
28
3
