P2
64 64
255
37
48
43
40
35
33
33
29
29
31
30
32
32
30
32
39
47
59
68
61
53
47
47
48
49
50
46
39
37
40
40
40
39
40
40
39
36
42
48
50
49
47
47
50
56
66
66
52
43
35
30
30
32
31
31
30
28
31
33
33
38
41
45
49
38
49
48
47
40
38
35
29
31
32
31
33
33
32
37
46
50
56
70
62
54
48
46
49
50
52
49
43
42
39
36
39
40
37
36
43
41
46
51
52
50
48
46
52
55
69
65
51
48
41
33
32
33
32
31
32
29
32
37
39
43
48
48
50
41
52
52
53
50
45
36
29
31
35
36
37
35
36
41
48
58
68
81
72
61
52
51
57
56
60
57
51
49
43
35
39
41
36
38
48
48
54
59
58
57
54
49
56
65
79
76
62
54
44
38
36
36
37
36
33
29
32
41
49
51
54
52
54
44
64
72
72
60
46
38
34
35
39
44
40
37
38
42
55
67
84
95
84
72
57
55
67
73
79
79
72
60
47
38
40
41
38
41
53
66
75
81
75
71
60
54
64
79
90
94
74
62
47
40
38
37
43
43
36
34
36
41
52
68
74
68
61
51
77
87
85
68
50
40
38
40
47
52
49
43
41
46
58
74
93
91
79
70
59
60
71
84
91
92
84
68
49
45
44
43
45
46
57
78
88
93
88
79
63
58
64
75
84
96
84
65
52
42
42
46
51
50
43
38
39
44
59
77
90
82
71
61
91
95
88
74
64
52
45
46
57
66
61
59
55
56
67
88
95
82
69
61
59
65
74
86
91
88
80
65
51
43
39
38
40
46
58
73
84
90
90
80
69
62
59
65
75
89
95
78
59
55
57
61
63
63
51
44
48
57
70
82
93
94
86
69
95
85
77
74
68
58
53
57
69
84
85
79
70
67
75
98
94
75
64
57
59
67
75
85
87
79
68
56
48
41
37
37
38
45
52
62
74
85
87
80
71
62
57
59
69
84
101
87
68
68
75
83
85
77
62
54
54
63
72
75
80
91
94
68
90
79
66
56
51
48
54
66
81
95
104
92
82
77
78
88
88
79
71
61
57
64
76
87
84
70
54
44
42
43
41
40
42
42
42
48
61
78
87
83
70
59
58
66
75
84
90
83
76
80
86
100
102
87
74
60
50
49
53
61
71
86
91
61
78
73
57
46
44
46
55
69
92
107
116
115
105
98
93
89
92
85
73
67
61
63
77
84
75
61
51
44
40
43
39
38
41
41
41
47
55
71
83
85
69
60
64
69
79
89
91
91
95
102
110
118
111
102
80
61
50
45
45
50
65
77
79
56
66
61
50
45
45
47
52
62
81
101
111
125
123
112
96
87
88
84
76
71
67
64
70
81
75
61
58
54
48
46
40
39
44
50
50
57
58
69
83
79
71
66
69
72
80
87
88
90
103
118
126
119
106
93
71
56
49
46
45
46
57
64
70
53
61
53
46
43
44
46
50
56
76
94
104
120
116
104
97
81
75
76
75
69
65
66
69
77
76
61
59
53
50
42
38
37
42
50
54
57
61
69
82
77
71
68
70
74
75
76
76
89
102
109
121
113
98
86
65
52
48
44
43
44
49
56
67
48
59
55
47
44
43
46
49
54
64
72
88
110
111
102
98
79
67
60
60
60
60
61
69
75
70
58
52
39
29
23
19
20
23
30
38
45
52
57
66
68
66
62
63
62
62
65
71
90
101
106
114
99
78
69
58
51
48
44
43
44
52
57
62
41
55
52
49
47
45
45
46
49
59
70
82
104
110
100
85
72
61
52
50
51
54
58
63
63
51
35
24
14
7
5
5
5
6
7
12
17
23
30
40
46
48
50
54
53
54
60
68
78
93
106
111
91
76
64
53
47
45
45
46
48
50
53
55
35
50
54
54
49
47
46
46
49
58
70
84
99
103
96
74
63
53
45
44
46
49
53
49
37
20
9
6
6
6
6
6
6
6
6
6
4
4
7
13
20
29
36
40
44
45
51
61
73
85
101
101
93
76
63
54
47
46
46
47
52
54
52
48
32
47
49
50
48
47
49
49
51
58
67
77
80
86
87
74
62
50
42
38
36
35
31
19
8
7
9
10
11
12
12
12
12
11
10
9
7
6
6
4
2
7
16
24
33
41
48
61
73
86
90
82
81
71
62
54
49
49
48
47
50
49
48
44
28
41
41
45
46
45
48
53
55
58
63
68
67
69
72
68
61
54
44
31
22
15
9
10
11
12
12
12
12
12
12
12
12
12
12
12
12
12
10
8
7
5
2
8
18
33
50
64
69
74
77
68
68
66
60
56
54
50
46
45
47
43
42
40
31
44
44
46
47
49
53
59
62
61
59
59
57
57
55
59
60
50
33
17
8
10
12
12
12
12
12
12
12
12
12
12
12
12
12
12
14
16
18
18
13
8
7
2
5
18
39
58
69
60
57
60
60
58
61
61
61
56
51
48
46
45
44
43
31
49
54
56
52
51
56
68
75
70
62
59
54
49
48
55
55
40
19
9
11
12
12
12
12
12
12
12
12
12
12
12
12
12
12
14
17
23
26
28
25
19
10
7
3
6
22
49
64
56
52
55
58
60
66
74
74
62
52
51
55
55
53
44
35
53
66
63
59
59
60
73
90
82
67
56
49
44
45
46
41
22
9
12
12
12
12
12
12
12
12
12
12
12
12
12
12
12
13
16
23
31
38
41
36
28
20
11
6
3
8
31
51
51
48
51
56
62
73
90
82
67
57
61
60
66
60
48
36
59
71
63
65
73
75
85
96
90
75
64
50
44
37
32
22
12
12
12
12
12
12
12
12
12
12
12
12
12
12
12
12
12
14
18
26
38
48
51
45
33
22
16
10
6
3
16
37
44
45
52
61
74
84
95
92
78
73
70
62
68
67
52
35
56
65
67
68
76
86
95
105
103
87
65
53
46
34
23
13
12
12
12
12
12
12
12
12
13
15
15
15
13
12
12
12
12
14
18
28
41
51
54
48
36
23
16
13
8
6
7
24
40
48
57
65
83
99
105
101
90
82
70
67
67
63
49
32
46
49
57
67
74
86
94
103
98
80
63
56
47
30
15
11
12
12
12
12
12
12
12
14
17
20
21
20
17
14
12
12
12
13
17
25
36
45
48
41
32
21
16
13
12
7
5
14
33
50
60
65
77
95
104
98
90
80
71
62
52
48
44
34
46
48
57
66
70
81
91
99
88
77
69
56
42
23
13
12
12
12
12
12
12
12
13
18
25
29
32
29
25
18
13
12
12
13
15
21
28
33
36
32
25
18
14
12
12
10
6
8
26
47
59
74
82
88
98
95
88
74
68
62
52
46
45
42
58
58
62
66
70
87
94
87
75
63
61
49
35
21
11
12
12
12
12
12
12
12
16
21
32
41
45
41
32
21
16
12
12
12
13
16
20
22
23
21
18
15
13
12
12
12
8
6
20
40
53
63
70
74
85
93
93
78
67
64
60
56
57
47
69
75
72
73
75
79
76
66
59
50
44
36
24
16
12
12
12
12
12
12
12
13
16
24
37
49
54
49
37
24
16
13
12
12
12
13
15
16
16
16
14
13
12
12
12
12
10
7
13
32
40
48
53
61
69
74
78
80
71
74
73
74
65
51
84
94
86
81
77
62
50
46
43
39
33
27
18
12
12
13
14
15
15
14
13
13
16
24
37
49
54
49
37
24
16
13
12
12
12
12
12
13
13
13
12
12
12
12
12
12
12
7
10
24
32
39
40
47
47
51
56
72
78
84
91
92
74
58
93
107
102
90
76
58
44
38
34
30
26
22
17
11
13
16
19
20
20
19
16
13
16
21
32
41
45
41
32
21
16
12
12
12
12
12
12
12
12
12
12
12
12
12
12
12
12
9
8
19
27
30
32
36
37
43
52
67
83
96
107
102
84
51
86
103
107
101
85
67
45
33
27
24
21
19
15
12
16
21
27
30
30
27
21
16
14
18
25
29
32
29
25
18
13
12
12
12
12
12
12
12
12
12
13
13
12
12
12
12
12
10
7
17
24
28
26
29
32
44
56
76
93
105
106
96
74
47
77
92
99
88
75
61
48
32
24
20
19
16
15
15
19
27
36
43
43
36
27
19
14
14
17
20
21
20
17
14
12
12
12
12
12
12
12
12
13
15
16
16
15
13
12
12
12
11
7
15
24
25
24
24
31
44
56
69
80
97
98
85
67
39
68
88
85
71
58
47
36
31
24
18
18
14
13
15
20
30
43
51
51
43
30
20
15
12
13
15
15
15
13
12
12
12
12
12
12
12
12
14
17
20
23
23
20
17
14
12
12
12
7
14
21
23
21
24
30
38
43
54
63
79
89
80
58
33
55
73
68
56
46
40
33
25
22
18
16
12
11
15
20
30
43
51
51
43
30
20
15
12
12
12
12
12
12
12
12
12
12
12
12
12
13
16
23
30
35
35
30
23
16
13
12
12
7
14
20
21
21
24
26
34
38
43
50
63
72
66
47
29
45
55
54
48
42
38
30
24
22
19
15
11
9
15
19
27
36
43
43
36
27
19
14
12
12
12
12
12
12
12
12
12
12
12
12
12
15
19
28
39
46
46
39
28
19
15
12
12
8
12
19
20
22
25
25
30
35
40
46
51
57
50
41
40
48
57
52
47
41
37
28
24
22
19
16
12
9
11
16
21
27
30
30
27
21
16
13
12
12
12
12
12
12
12
12
12
12
12
12
12
15
20
32
44
53
53
44
32
20
15
12
11
7
13
18
20
22
25
26
31
37
41
47
52
56
48
40
45
60
73
65
53
45
39
32
25
21
18
16
13
10
10
13
16
19
20
20
19
16
13
12
12
13
13
13
12
12
12
12
12
12
12
12
12
15
20
29
41
49
49
41
29
20
15
12
10
8
16
20
20
21
24
27
35
39
45
53
65
73
60
45
54
75
90
82
67
56
45
35
30
22
18
18
14
10
7
12
13
14
15
15
14
13
12
13
14
16
16
16
15
13
12
12
12
12
12
12
12
14
18
25
33
39
39
33
25
18
14
12
10
9
17
21
22
21
25
32
38
45
56
67
82
90
75
54
64
81
95
99
84
72
59
45
31
22
19
20
18
12
5
12
12
12
12
12
12
12
13
15
18
21
23
22
20
16
13
12
12
12
12
12
12
13
15
19
24
27
27
24
19
15
13
12
8
12
20
24
24
23
25
33
48
59
72
84
99
95
81
64
70
91
105
106
97
80
61
43
31
27
23
22
19
12
7
10
12
12
12
12
12
12
14
18
25
32
36
33
28
21
15
13
12
12
12
12
12
12
13
15
16
18
18
16
15
13
12
10
7
14
21
27
27
25
30
34
46
61
80
97
106
105
91
70
80
98
108
99
87
71
55
42
37
33
29
25
22
15
8
4
12
12
12
12
12
13
16
21
32
41
48
45
36
25
17
13
12
12
12
12
12
12
12
12
13
14
14
13
12
12
12
8
8
18
25
28
30
32
36
37
45
55
71
87
99
108
98
80
70
88
93
85
79
75
58
49
42
44
38
33
26
21
12
4
10
12
12
12
12
13
16
23
36
48
54
51
41
28
18
14
12
12
12
12
12
12
12
12
12
12
12
12
12
12
10
6
11
24
30
33
37
41
47
45
52
58
75
79
85
93
88
70
63
72
74
73
72
78
79
76
64
59
49
41
34
29
21
9
2
11
12
12
12
13
16
22
33
45
51
48
38
26
18
14
12
12
12
12
12
12
12
12
12
12
12
12
12
12
7
6
18
32
39
42
48
54
62
70
76
79
78
72
73
74
72
63
56
57
59
63
66
73
91
94
84
73
64
56
46
38
29
15
7
5
12
12
12
12
15
20
28
36
41
38
31
23
16
13
12
12
12
12
12
12
12
12
12
12
12
12
12
8
5
13
25
40
47
55
64
70
76
87
94
91
73
66
63
59
57
56
45
46
49
60
67
72
84
93
96
85
74
66
54
44
35
24
15
8
7
12
12
12
13
16
21
25
28
26
23
17
14
12
12
12
12
12
12
12
12
12
12
12
12
12
9
5
12
23
35
45
53
62
73
79
88
99
93
84
72
67
60
49
46
45
43
47
50
60
69
77
88
96
103
95
77
61
53
45
37
32
24
15
7
6
12
12
12
13
15
17
18
18
16
14
12
12
12
12
12
12
12
12
12
12
12
12
12
8
4
10
23
34
42
44
54
60
67
80
98
103
96
88
77
69
60
50
47
43
47
60
66
67
69
80
88
98
105
98
82
62
52
43
37
38
35
25
15
8
5
11
12
12
13
13
14
14
13
12
12
12
12
12
12
12
12
12
12
12
12
11
7
3
7
18
31
45
46
44
50
58
65
85
101
105
98
88
80
69
67
66
60
47
49
63
70
62
68
73
76
88
96
87
73
61
48
41
38
42
41
32
22
13
5
2
8
13
12
12
12
12
12
12
12
12
12
12
12
12
12
12
12
12
10
4
1
6
14
26
40
49
49
45
46
54
64
76
87
96
88
76
73
68
62
70
63
49
47
57
66
61
60
58
63
77
91
77
61
54
48
44
45
49
47
35
25
17
11
7
2
1
7
11
12
12
12
12
12
12
12
12
12
12
12
11
8
4
1
2
7
12
18
28
42
57
57
50
47
51
54
64
77
91
77
63
58
60
61
66
57
47
42
51
55
56
51
52
59
71
75
68
61
56
50
47
49
55
54
42
28
21
17
16
11
5
1
0
3
7
10
11
12
12
12
11
9
8
5
2
0
2
6
13
18
20
23
34
49
62
62
53
52
53
59
61
68
75
71
59
52
51
56
55
51
42
41
44
44
46
48
50
55
61
61
61
58
59
57
54
53
61
57
47
33
25
23
26
24
16
7
3
1
0
0
0
0
0
0
0
1
2
2
3
6
12
22
29
30
27
28
38
53
64
65
59
57
60
59
58
61
61
61
55
50
48
46
44
44
41
39
42
42
46
46
46
49
53
55
59
65
68
64
69
72
67
60
48
39
31
30
34
38
32
23
14
10
9
7
5
4
4
5
6
8
12
16
17
22
30
38
43
40
34
35
45
55
63
70
72
72
67
68
65
59
55
53
49
46
46
46
42
42
39
43
47
49
50
47
48
49
49
52
59
69
79
81
85
83
72
58
47
40
37
37
43
48
53
49
38
32
30
23
17
16
16
16
18
23
34
40
41
49
58
62
56
48
42
42
42
50
61
72
86
88
81
79
69
59
52
49
49
48
47
50
49
47
43
47
51
54
53
48
47
45
47
52
60
73
88
100
102
88
68
61
49
42
43
44
50
57
63
68
61
57
54
46
38
34
32
33
36
43
53
63
66
69
74
71
61
55
49
47
45
54
62
71
91
102
100
88
73
60
52
47
45
47
48
53
54
51
47
55
55
51
48
46
44
45
46
51
61
73
86
109
108
97
78
67
56
51
47
51
53
56
65
71
69
68
67
60
49
43
41
41
44
51
63
72
72
71
75
70
60
57
53
50
54
59
67
81
97
108
109
86
73
61
51
46
45
44
46
48
51
55
55
64
58
54
45
43
43
47
50
56
67
75
94
113
108
101
95
74
63
60
58
57
58
62
68
73
70
66
68
60
53
45
40
40
45
55
63
68
70
73
77
73
66
61
62
61
60
66
74
95
101
108
113
94
75
67
56
50
47
43
43
45
54
58
64
69
59
51
45
43
44
47
51
60
81
96
109
121
113
103
93
78
76
72
71
65
65
64
71
77
70
60
60
56
54
46
41
41
46
55
59
62
62
74
79
72
67
65
68
71
75
76
78
93
103
113
121
109
96
81
60
51
47
44
43
45
51
59
69
72
64
59
48
44
45
48
54
67
86
104
115
126
121
107
92
87
88
83
74
67
63
63
73
79
69
57
55
49
47
44
39
39
44
48
50
55
59
72
82
73
66
63
70
74
83
88
87
92
107
121
126
115
104
86
67
54
48
45
44
48
59
64
72
80
78
69
53
45
44
48
58
74
98
109
118
113
104
96
92
90
91
82
71
65
60
62
78
79
69
55
46
41
37
39
36
36
41
40
41
49
58
72
82
78
65
60
65
71
82
91
90
92
96
104
113
118
109
98
74
58
48
44
45
53
69
78
80
91
88
74
64
53
50
49
57
70
84
99
103
89
81
76
80
90
86
77
69
59
58
67
80
88
78
62
48
40
39
39
38
38
39
39
40
48
62
81
88
80
67
58
59
69
77
86
90
80
76
81
89
103
99
84
70
57
49
50
53
64
74
88
91
93
93
82
76
73
65
56
53
59
73
85
84
77
69
68
81
101
89
72
61
57
60
70
77
86
87
76
65
54
46
39
37
37
39
46
54
65
76
87
86
77
70
60
57
61
72
89
101
81
68
69
77
84
85
73
59
53
56
65
73
76
82
93
93
83
93
94
85
72
60
50
44
49
60
65
61
58
55
57
73
92
93
78
67
60
60
67
77
88
91
86
76
61
48
41
38
38
41
48
61
76
86
91
88
77
67
60
60
67
78
93
92
73
57
55
58
61
65
60
49
44
50
60
72
85
94
93
83
69
79
89
81
64
46
39
38
42
49
52
47
43
41
49
61
79
96
88
77
67
58
61
75
86
92
91
81
62
47
45
44
44
45
47
62
81
91
92
86
75
61
58
67
77
88
96
79
61
49
41
43
47
52
49
42
38
39
46
64
81
89
79
69
59
66
74
70
56
43
37
34
36
41
44
38
37
39
44
58
70
90
92
82
68
56
57
70
74
81
77
69
56
44
38
41
41
38
44
56
69
77
81
74
70
57
56
68
82
92
90
70
58
44
39
37
38
44
41
36
34
37
43
56
70
74
66
59
54
52
53
52
49
43
34
29
32
35
37
36
35
37
42
51
60
72
82
68
58
50
52
58
57
60
56
49
49
41
35
40
40
35
41
49
49
56
60
57
58
52
50
58
68
82
72
60
51
42
37
35
36
37
35
32
29
34
43
49
52
53
52
54
50
49
48
45
39
38
34
29
32
32
31
33
32
33
39
47
51
60
71
58
53
47
47
50
51
52
48
41
43
38
36
40
40
36
38
43
41
48
52
51
50
47
47
53
58
71
60
51
47
39
33
32
33
31
32
32
29
34
38
39
45
48
49
50
49
46
42
39
34
33
32
28
30
31
31
32
31
30
33
41
49
63
68
58
51
47
47
48
50
49
44
37
38
40
40
39
39
40
40
38
37
44
49
50
48
47
47
51
58
68
63
49
41
33
30
31
32
31
31
30
28
32
33
34
39
42
46
49
