P2
64 64
255
145
141
136
133
128
125
120
117
112
109
106
105
103
103
98
93
88
80
74
69
64
60
56
52
48
44
40
36
32
27
24
20
16
12
8
4
0
0
0
0
0
0
0
0
0
0
0
0
0
0
0
0
0
0
0
0
0
0
0
0
0
0
0
0
144
140
137
133
128
125
121
116
113
111
112
114
115
116
112
108
99
88
77
71
65
60
56
52
48
44
40
36
32
28
24
20
15
12
7
4
0
0
0
0
0
0
0
0
0
0
0
0
0
0
0
0
0
0
0
0
0
0
0
0
0
0
0
0
145
140
136
133
128
125
120
117
115
116
119
127
131
137
134
129
114
103
87
76
65
59
55
52
48
43
39
36
31
28
24
20
15
12
8
4
0
0
0
0
0
0
0
0
0
0
0
0
0
0
0
0
0
0
0
0
0
0
0
0
0
0
0
0
145
140
136
132
129
124
120
118
119
123
132
144
155
164
163
157
139
120
98
83
70
62
55
51
47
43
40
36
31
27
23
19
15
11
7
3
0
0
0
0
0
0
0
0
0
0
0
0
0
0
0
0
0
0
0
0
0
0
0
0
0
0
0
0
144
140
135
132
128
124
121
120
124
133
146
165
184
192
196
186
171
141
116
93
74
63
55
51
47
44
39
35
32
27
23
19
15
11
7
3
0
0
0
0
0
0
0
0
0
0
0
0
0
0
0
0
0
0
0
0
0
0
0
0
0
0
0
0
144
140
135
132
128
123
122
123
129
140
161
186
208
221
225
215
195
163
128
100
81
65
56
52
48
43
39
36
31
27
23
19
15
11
7
3
0
0
0
0
0
0
0
0
0
0
0
0
0
0
0
0
0
0
0
0
0
0
0
0
0
0
0
0
144
140
136
131
128
123
121
124
133
148
171
195
222
238
244
232
207
173
141
108
83
66
57
51
47
43
39
35
31
27
23
19
15
10
7
3
0
0
0
0
0
0
0
0
0
0
0
0
0
0
0
0
0
0
0
0
0
0
0
0
0
0
0
0
144
139
136
131
128
123
122
124
132
148
172
200
226
244
250
237
212
177
141
108
83
66
58
51
47
43
39
35
31
27
23
19
15
11
7
3
0
0
0
0
0
0
0
0
0
0
0
0
0
0
0
0
0
0
0
0
0
0
0
0
0
0
0
0
144
140
135
131
128
124
121
123
131
146
168
192
217
232
238
226
203
170
137
106
83
66
56
51
47
43
39
35
31
27
22
18
14
10
7
3
0
0
0
0
0
0
0
0
0
0
0
0
0
0
0
0
0
0
0
0
0
0
0
0
0
0
0
0
144
139
135
131
127
123
120
122
126
137
155
180
200
211
214
204
187
156
122
96
78
63
56
51
47
43
38
35
31
27
23
19
14
10
6
2
0
0
0
0
0
0
0
0
0
0
0
0
0
0
0
0
0
0
0
0
0
0
0
0
0
0
0
0
143
139
136
131
127
124
120
118
121
129
141
157
173
180
183
173
158
132
109
88
72
61
55
50
47
43
39
35
30
27
23
18
15
11
6
2
0
0
0
0
0
0
0
0
0
0
0
0
0
0
0
0
0
0
0
0
0
0
0
0
0
0
0
0
144
139
135
131
127
124
119
116
116
119
126
136
145
153
151
145
128
112
93
78
62
41
22
10
9
17
27
31
30
26
23
18
15
10
6
2
0
0
0
0
0
0
1
1
1
1
0
0
0
0
0
0
0
0
0
0
0
0
0
0
0
0
0
0
143
139
135
131
127
123
119
116
113
112
115
120
123
126
123
118
105
95
82
65
31
7
3
0
0
2
5
16
27
26
22
18
14
10
6
2
0
0
0
1
2
4
6
6
6
5
3
1
0
0
0
0
0
0
0
0
0
0
0
0
0
0
0
0
143
138
134
130
127
123
119
114
111
109
108
108
109
107
105
100
93
83
68
33
5
0
0
0
0
0
0
2
14
24
22
18
14
10
6
2
0
0
1
4
9
15
20
21
21
17
11
6
2
0
0
0
0
0
0
0
0
0
0
0
0
0
0
0
143
139
135
131
127
123
118
115
111
107
103
102
99
96
88
74
54
40
28
11
0
0
0
0
0
0
0
0
7
20
22
18
13
10
6
2
0
1
6
12
24
33
44
46
46
37
28
16
8
3
0
0
0
0
0
0
0
0
0
0
0
0
0
0
142
138
135
130
127
122
118
114
111
107
103
99
96
86
56
27
11
0
0
0
0
0
0
0
0
0
0
0
1
12
22
17
14
10
6
2
1
5
13
25
45
61
80
83
83
67
52
32
18
7
2
0
0
0
0
0
0
0
0
0
0
0
0
0
142
138
135
130
126
122
118
115
110
106
102
98
88
50
11
0
0
0
0
0
0
0
0
0
0
0
0
0
0
6
18
16
12
10
5
1
3
10
25
45
72
101
121
130
126
111
83
55
32
15
5
1
0
0
0
0
0
0
0
0
0
0
0
0
142
138
134
131
126
122
118
114
110
106
102
98
69
13
0
0
0
0
0
0
0
0
0
0
0
0
0
0
0
0
0
7
8
10
6
1
5
17
37
66
105
144
166
179
172
155
120
80
47
24
9
2
0
0
0
0
0
0
0
0
0
0
0
0
142
138
135
131
126
123
118
114
110
106
102
88
25
0
0
0
0
0
0
0
0
0
0
0
0
0
0
0
0
0
0
0
0
5
6
2
8
24
49
86
130
174
203
219
211
188
147
102
61
33
13
3
0
0
0
0
0
0
0
0
0
0
0
0
142
138
134
130
126
122
118
114
110
106
102
64
5
0
0
0
0
0
0
0
0
0
0
0
0
0
0
0
0
0
0
0
0
0
4
3
9
27
56
97
142
190
224
243
233
205
161
114
70
37
15
4
0
0
0
0
0
0
0
0
0
0
0
0
142
138
134
130
126
122
118
114
110
106
87
15
0
0
0
0
0
0
0
0
0
0
0
0
0
0
0
0
0
0
0
0
0
0
2
3
9
27
56
97
142
190
224
243
233
205
161
114
70
37
15
4
0
0
0
0
0
0
0
0
0
0
0
0
142
137
134
130
126
122
117
114
109
101
47
0
0
0
0
0
0
0
0
0
0
0
0
0
0
0
0
0
0
0
0
0
0
0
0
2
8
24
49
86
130
174
203
219
211
188
147
102
61
33
13
3
0
0
0
0
0
0
0
0
0
0
0
0
142
138
133
130
126
121
118
114
109
74
0
0
0
0
0
0
0
0
0
0
0
0
0
0
0
0
0
0
0
0
0
0
0
0
0
0
5
17
37
66
105
144
166
179
172
155
120
80
47
24
9
2
0
0
0
0
0
0
0
0
0
0
0
0
142
137
134
130
125
122
118
113
110
42
0
0
0
0
0
0
0
0
0
0
0
0
0
0
0
0
0
0
0
0
0
0
0
0
0
1
3
10
25
45
72
101
121
130
126
111
83
55
32
15
5
1
0
0
0
0
0
0
0
0
0
0
0
0
142
138
133
130
125
122
118
113
110
0
0
0
0
0
0
0
0
0
0
0
0
0
0
0
0
0
0
0
0
0
0
0
0
0
1
1
1
5
13
25
45
61
80
83
83
67
52
32
18
7
2
0
0
0
0
0
0
0
0
0
0
0
0
0
141
137
134
129
125
121
117
113
109
0
0
0
0
0
0
0
0
0
0
0
3
11
11
0
0
0
0
0
0
0
0
0
0
0
1
0
0
1
6
12
24
33
44
46
46
37
28
16
8
3
0
0
0
0
0
0
0
0
0
0
0
0
0
0
141
138
133
129
125
121
117
113
109
10
0
0
0
0
0
0
0
0
0
0
16
41
23
0
0
0
0
0
0
0
0
0
0
0
3
0
0
0
1
4
9
15
20
21
21
17
11
6
2
0
0
0
0
0
0
0
0
0
0
0
0
0
0
0
141
137
133
129
125
121
117
113
109
57
0
0
0
0
0
0
0
0
0
10
46
48
9
0
0
0
0
0
0
0
0
0
0
0
4
1
0
0
0
1
2
4
6
6
6
5
3
1
0
0
0
0
0
0
0
0
0
0
0
0
0
0
0
0
141
137
133
129
125
121
116
112
102
68
9
0
0
0
0
0
0
0
5
40
59
38
3
0
0
0
0
0
0
0
0
0
0
2
4
0
0
0
0
0
0
0
1
1
1
1
0
0
0
0
0
0
0
0
0
0
0
0
0
0
0
0
0
0
141
136
133
129
125
121
117
106
68
33
10
0
0
0
0
0
6
9
50
62
60
20
0
0
0
0
0
0
0
0
0
0
0
3
3
0
0
0
0
0
0
0
0
0
0
0
0
0
0
0
0
0
0
0
0
0
0
0
0
0
0
0
0
0
141
136
132
129
125
120
110
70
20
0
0
0
0
0
0
3
28
54
68
64
61
9
0
0
0
0
0
0
0
0
0
0
1
6
4
0
0
0
0
0
0
0
0
0
0
0
0
0
0
0
0
0
0
0
0
0
0
0
0
0
0
0
0
0
141
137
133
128
124
120
94
35
0
0
0
0
0
0
0
0
24
58
52
32
0
0
0
0
0
0
0
0
0
0
0
0
2
7
3
0
0
0
0
0
0
0
0
0
0
0
0
0
0
0
0
0
0
0
0
0
0
0
0
0
0
0
0
0
140
136
132
128
124
121
72
14
0
0
0
0
0
0
0
0
10
34
0
0
0
0
0
0
0
0
0
0
0
0
0
0
3
6
3
0
0
0
0
0
0
0
0
0
0
0
0
0
0
0
0
0
0
0
0
0
0
0
0
0
0
0
0
0
141
136
132
128
124
120
58
0
0
0
0
0
0
0
0
0
0
0
0
0
0
0
0
0
0
0
0
0
0
0
0
0
0
4
4
0
0
0
0
0
0
0
0
0
0
0
0
0
0
0
0
0
0
0
0
0
0
0
0
0
0
0
0
0
140
136
132
128
124
120
58
0
0
0
0
0
0
0
0
0
0
0
0
0
0
0
0
0
0
0
0
1
1
1
1
0
0
1
4
0
0
0
0
0
0
0
0
0
0
0
0
0
0
0
0
0
0
0
0
0
0
0
0
0
0
0
0
0
141
136
132
128
124
120
72
14
0
0
0
0
0
0
0
0
0
0
0
0
0
0
0
0
0
2
3
5
6
6
5
3
2
0
2
0
0
0
0
0
0
0
0
0
0
0
0
0
0
0
0
0
0
0
0
0
0
0
0
0
0
0
0
0
140
136
132
128
124
120
94
35
0
0
0
0
0
0
0
0
0
0
0
0
0
0
0
1
3
7
13
19
21
21
19
13
7
3
2
0
0
0
0
0
0
0
0
0
0
0
0
0
0
0
0
0
0
0
0
0
0
0
0
0
0
0
0
0
140
136
132
128
124
120
109
70
20
0
0
0
0
0
0
15
0
0
0
0
0
0
1
4
10
20
30
41
46
46
41
30
20
10
4
1
0
0
0
0
0
0
0
0
0
0
0
0
0
0
0
0
0
0
0
0
0
0
0
0
0
0
0
0
140
136
131
128
123
120
116
104
67
32
12
0
0
11
26
50
36
0
0
0
0
0
3
10
21
39
56
73
83
83
73
56
39
21
10
3
0
0
0
0
0
0
0
0
0
0
0
0
0
0
0
0
0
0
0
0
0
0
0
0
0
0
0
0
139
136
131
128
124
120
115
111
101
84
62
48
46
54
67
74
56
0
0
0
0
2
7
20
39
63
92
116
128
128
116
92
63
39
20
7
2
0
0
0
0
0
0
0
0
0
0
0
0
0
0
0
0
0
0
0
0
0
0
0
0
0
0
0
140
135
131
127
123
120
115
111
107
103
99
95
91
87
83
79
75
0
0
0
0
3
13
30
56
92
132
160
175
175
160
132
92
56
30
13
3
0
0
0
0
0
0
0
0
0
0
0
0
0
0
0
0
0
0
0
0
0
0
0
0
0
0
0
139
136
131
128
124
120
116
112
107
103
99
95
85
71
52
40
38
0
0
0
1
5
19
41
73
116
160
195
215
215
195
160
116
73
41
19
5
1
0
0
0
0
0
0
0
0
0
0
0
0
0
0
0
0
0
0
0
0
0
0
0
0
0
0
139
135
131
127
123
119
115
111
107
103
99
89
57
27
9
0
0
0
0
0
1
6
21
46
83
128
175
215
238
238
215
175
128
83
46
21
6
1
0
0
0
0
0
0
0
0
0
0
0
0
0
0
0
0
0
0
0
0
0
0
0
0
0
0
139
135
131
127
123
119
115
111
107
102
93
59
17
0
0
0
0
0
0
0
1
6
21
46
83
128
175
215
238
238
215
175
128
83
46
21
6
1
0
0
0
0
0
0
0
0
0
0
0
0
0
0
0
0
0
0
0
0
0
0
0
0
0
0
139
135
131
126
123
119
115
110
107
103
80
30
0
0
0
0
0
0
0
0
1
5
19
41
73
116
160
195
215
215
195
160
116
73
41
19
5
1
0
0
0
0
0
0
0
0
0
0
0
0
0
0
0
0
0
0
0
0
0
0
0
0
0
0
139
134
131
127
122
118
115
110
107
103
61
12
0
0
0
0
0
0
0
0
0
3
13
30
56
92
132
160
175
175
160
132
92
56
30
13
3
0
0
0
0
0
0
0
0
0
0
0
0
0
0
0
0
0
0
0
0
0
0
0
0
0
0
0
139
135
130
127
123
119
114
111
106
103
49
0
0
0
0
0
0
0
0
0
0
2
7
20
39
63
92
116
128
128
116
92
63
39
20
7
2
0
0
0
0
0
0
0
0
0
0
0
0
0
0
0
0
0
0
0
0
0
0
0
0
0
0
0
139
135
131
126
122
119
115
111
106
103
50
0
0
0
0
0
0
0
0
0
0
0
3
10
21
39
56
73
83
83
73
56
39
21
10
3
0
0
0
0
0
0
0
0
0
0
0
0
0
0
0
0
0
0
0
0
0
0
0
0
0
0
0
0
138
134
130
127
122
118
114
111
106
102
61
12
0
0
0
0
0
0
0
0
0
0
1
4
10
20
30
41
46
46
41
30
20
10
4
1
0
0
0
0
0
0
0
0
0
0
0
0
0
0
0
0
0
0
0
0
0
0
0
0
0
0
0
0
138
134
130
126
122
118
115
110
106
102
80
29
0
0
0
0
0
0
0
0
0
0
0
1
3
7
13
19
21
21
19
13
7
3
1
0
0
0
0
0
0
0
0
0
0
0
0
0
0
0
0
0
0
0
0
0
0
0
0
0
0
0
0
0
138
134
130
126
122
118
114
110
106
102
92
58
15
0
0
0
0
0
0
0
0
0
0
0
0
2
3
5
6
6
5
3
2
0
1
0
0
0
0
0
0
0
0
0
0
0
0
0
0
0
0
0
0
0
0
0
0
0
0
0
0
0
0
0
138
134
130
126
121
118
114
110
106
102
98
87
56
24
4
0
0
0
0
0
0
0
0
0
0
0
0
1
1
1
1
0
0
0
1
0
0
0
0
0
0
0
0
0
0
0
0
0
0
0
0
0
0
0
0
0
0
0
0
0
0
0
0
0
138
134
130
126
122
118
114
110
106
101
97
94
84
70
44
24
7
0
0
0
0
2
7
0
0
0
0
0
0
0
0
0
0
0
1
0
0
0
0
0
0
0
0
0
0
0
0
0
0
0
0
0
0
0
0
0
0
0
0
0
0
0
0
0
138
134
130
125
122
118
113
109
106
101
98
94
90
85
82
78
72
59
46
31
29
30
20
0
0
0
0
0
0
0
0
0
0
2
1
0
0
0
0
0
0
0
0
0
0
0
0
0
0
0
0
0
0
0
0
0
0
0
0
0
0
0
0
0
138
134
129
126
122
117
114
110
105
102
98
93
89
86
82
78
73
69
65
61
57
54
31
5
0
0
0
0
0
0
0
0
0
3
1
0
0
0
0
0
0
0
0
0
0
0
0
0
0
0
0
0
0
0
0
0
0
0
0
0
0
0
0
0
138
133
130
126
121
118
114
109
105
102
98
93
89
85
81
77
73
69
65
61
57
53
40
14
0
0
0
0
0
0
0
0
2
4
1
0
0
0
0
0
0
0
0
0
0
0
0
0
0
0
0
0
0
0
0
0
0
0
0
0
0
0
0
0
138
134
129
125
121
117
113
110
105
101
97
93
89
85
81
77
73
69
65
61
57
53
46
28
8
0
0
0
0
0
0
2
6
5
0
0
0
0
0
0
0
0
0
0
0
0
0
0
0
0
0
0
0
0
0
0
0
0
0
0
0
0
0
0
138
133
130
126
121
117
114
109
105
101
97
93
88
85
81
77
72
69
65
61
57
53
49
42
26
11
4
0
0
3
5
7
8
4
0
0
0
0
0
0
0
0
0
0
0
0
0
0
0
0
0
0
0
0
0
0
0
0
0
0
0
0
0
0
137
133
129
125
121
117
113
109
105
100
97
93
89
85
80
76
72
68
64
60
57
52
49
45
38
29
21
14
12
13
14
11
8
4
0
0
0
0
0
0
0
0
0
0
0
0
0
0
0
0
0
0
0
0
0
0
0
0
0
0
0
0
0
0
137
133
129
125
121
117
113
109
104
100
97
93
89
85
81
77
73
69
64
61
57
52
48
45
40
36
32
29
24
20
17
12
8
4
0
0
0
0
0
0
0
0
0
0
0
0
0
0
0
0
0
0
0
0
0
0
0
0
0
0
0
0
0
0
137
133
129
125
121
117
113
108
104
101
96
93
89
84
81
77
73
68
65
60
56
53
48
44
40
36
32
28
24
20
16
12
8
4
0
0
0
0
0
0
0
0
0
0
0
0
0
0
0
0
0
0
0
0
0
0
0
0
0
0
0
0
0
0
137
133
129
124
121
117
112
108
104
101
96
92
89
84
81
76
72
69
64
60
56
52
49
44
40
37
32
28
24
20
16
12
8
4
0
0
0
0
0
0
0
0
0
0
0
0
0
0
0
0
0
0
0
0
0
0
0
0
0
0
0
0
0
0
137
133
128
125
121
117
113
109
104
101
97
92
89
84
80
76
72
69
65
60
56
53
48
44
40
36
32
28
23
20
16
11
8
4
0
0
0
0
0
0
0
0
0
0
0
0
0
0
0
0
0
0
0
0
0
0
0
0
0
0
0
0
0
0
136
133
128
125
120
116
113
108
104
101
96
93
88
84
80
76
72
68
65
60
56
52
48
44
40
36
31
28
24
20
15
11
8
4
0
0
0
0
0
0
0
0
0
0
0
0
0
0
0
0
0
0
0
0
0
0
0
0
0
0
0
0
0
0
