P2
90 90
255
0
0
0
0
0
0
0
0
0
0
0
0
0
0
0
0
0
0
0
0
0
0
0
0
0
0
0
0
0
0
0
0
0
0
0
0
0
0
0
0
0
0
0
0
0
0
0
0
0
0
0
0
10
16
29
38
42
46
52
57
58
62
63
70
66
62
56
56
60
71
72
78
77
79
75
0
0
0
0
0
0
0
0
0
0
0
0
0
0
0
0
147
172
181
183
185
177
169
176
173
175
177
177
189
181
182
171
169
171
150
163
187
185
190
195
189
172
153
160
164
172
178
171
165
148
149
158
147
143
130
137
160
187
198
207
206
200
196
195
196
198
193
187
180
194
206
209
217
216
215
207
211
212
214
218
222
230
229
228
231
235
237
239
238
238
235
230
224
223
228
234
237
241
242
243
245
240
239
240
0
0
134
140
160
167
180
166
152
161
185
174
176
158
163
181
177
171
165
149
140
164
157
162
172
172
177
174
153
165
161
173
172
158
159
152
144
152
137
120
108
118
144
162
184
182
181
185
187
179
189
191
191
182
180
186
193
196
198
195
198
195
199
201
205
209
213
221
224
224
224
228
232
235
236
234
234
234
225
222
224
231
237
239
242
244
246
243
241
240
0
0
125
133
151
152
146
142
140
144
169
178
173
160
150
135
144
169
158
153
136
130
138
147
155
164
162
165
154
168
164
166
169
154
145
126
121
121
102
89
92
110
132
140
158
162
158
168
161
152
176
193
190
177
171
168
170
177
173
175
177
178
182
181
182
183
192
199
203
208
210
215
219
224
226
229
232
229
221
220
219
224
232
237
241
244
244
243
243
241
0
0
126
133
138
119
125
130
118
122
140
157
153
143
124
122
112
117
113
130
124
125
140
149
150
131
133
145
153
148
145
143
152
125
113
99
91
87
73
70
85
110
124
130
138
137
136
140
124
127
141
162
169
166
161
150
155
154
154
158
158
159
159
157
158
163
169
178
184
186
188
191
200
204
211
214
218
216
213
212
215
217
224
229
235
237
242
245
242
244
0
0
129
135
110
121
123
120
104
100
98
104
108
102
88
94
95
90
106
112
118
117
123
126
118
114
122
125
116
115
103
113
114
108
95
84
84
74
70
73
69
79
94
105
107
114
112
106
104
103
110
135
147
148
139
137
136
135
134
138
141
141
141
139
140
145
149
155
157
160
163
167
173
180
188
193
197
194
194
199
204
209
213
224
227
233
238
243
245
245
0
0
140
133
132
111
107
95
78
72
63
58
63
54
44
54
61
63
70
83
87
91
94
95
89
89
93
87
75
68
63
68
73
74
69
67
73
68
64
60
53
55
64
69
76
72
76
76
78
80
74
85
115
122
124
120
119
118
119
122
126
128
127
127
129
133
134
136
138
141
145
147
152
159
164
167
171
174
175
179
186
194
202
212
220
227
235
241
244
246
0
0
150
146
137
116
88
74
53
42
34
38
38
35
34
33
36
40
49
57
59
63
68
65
64
63
60
54
45
45
42
42
48
47
47
45
53
56
50
44
40
45
49
51
55
57
58
58
52
45
45
51
69
87
101
105
107
108
110
112
115
116
118
119
120
124
126
127
128
130
135
137
139
145
149
150
157
157
160
167
175
184
195
205
213
220
229
238
243
246
0
0
155
143
128
114
79
57
23
13
3
3
4
4
3
3
4
4
5
6
7
7
8
7
7
6
5
5
5
7
7
8
10
10
10
10
11
13
14
15
15
15
19
19
22
22
23
22
20
17
18
21
32
49
66
78
91
96
100
101
104
109
111
114
114
117
120
122
123
125
129
132
133
137
140
143
148
150
151
158
168
179
190
197
206
216
227
236
242
244
0
0
159
154
125
116
81
45
16
0
0
0
0
0
0
0
0
0
0
0
0
0
0
0
0
0
0
0
0
0
0
0
0
0
0
0
0
0
0
0
0
0
0
0
0
0
0
0
0
0
2
9
17
30
50
69
81
87
91
95
98
102
107
109
111
113
117
120
122
122
126
131
130
133
137
139
143
148
148
153
163
175
186
196
203
211
223
233
241
243
0
0
152
153
148
122
74
40
16
0
0
0
0
0
0
0
0
0
0
0
0
0
0
0
0
0
0
0
0
0
0
0
0
0
0
0
0
0
0
0
0
0
0
0
0
0
0
0
0
0
2
10
19
33
51
69
79
85
89
93
96
100
105
106
110
111
113
118
120
122
123
127
131
131
134
138
139
143
147
153
162
173
184
195
202
208
221
231
239
241
0
0
148
158
153
120
78
47
16
0
0
0
0
0
0
0
0
0
0
0
0
0
0
0
0
0
0
0
0
0
0
0
0
0
0
0
0
0
0
0
0
0
0
0
0
0
0
0
0
0
2
10
20
34
54
71
83
89
92
94
96
100
103
107
108
111
111
114
118
121
122
123
128
131
132
134
138
140
144
150
160
170
183
193
200
207
217
229
237
239
0
0
169
169
151
125
88
61
19
0
0
0
0
0
0
0
0
0
0
0
0
0
0
0
0
0
0
0
0
0
0
0
0
0
0
0
0
0
0
0
0
0
0
0
0
0
0
0
0
1
3
11
23
38
53
72
85
92
93
94
95
98
101
103
106
108
111
113
117
118
121
122
124
128
131
133
135
138
140
146
155
168
180
191
196
205
216
228
236
238
0
0
190
187
165
129
97
65
21
0
0
0
0
0
0
0
0
0
0
0
0
0
0
0
0
0
0
0
0
0
0
0
0
0
0
0
0
0
0
0
0
0
0
0
0
0
0
0
0
1
3
10
22
36
52
70
82
90
91
92
93
95
98
100
105
106
107
111
113
117
118
121
123
125
128
131
133
135
139
143
152
165
177
188
193
201
212
227
236
241
0
0
184
180
164
143
105
68
21
0
0
0
0
0
0
0
0
0
0
0
0
0
0
0
0
0
0
0
0
0
0
0
0
0
0
0
0
0
0
0
0
0
0
0
0
0
0
0
0
0
3
9
21
33
47
62
74
83
85
86
90
91
94
97
98
104
105
107
110
114
117
118
122
123
126
128
131
133
136
141
149
160
173
185
191
201
211
228
234
243
0
0
186
177
173
145
100
64
23
0
0
0
0
0
0
0
0
0
0
0
0
0
0
0
0
0
0
0
0
0
0
0
0
0
0
0
0
0
0
0
0
0
0
0
0
0
0
0
0
0
2
6
15
25
39
52
63
70
77
82
85
88
91
93
95
98
102
103
106
109
113
117
118
122
123
125
128
129
132
139
147
160
173
183
190
198
210
227
238
238
0
0
179
180
168
134
95
63
23
0
0
0
0
0
0
0
0
0
0
0
0
0
0
0
0
0
0
0
0
0
0
0
0
0
0
0
0
0
0
0
0
0
0
0
0
0
0
0
0
0
1
4
9
18
27
38
46
56
66
76
81
85
87
89
90
93
97
100
101
106
109
113
116
118
121
123
125
128
129
135
146
157
169
180
187
195
209
225
234
238
0
0
200
179
159
134
95
61
23
0
0
0
0
0
0
0
0
0
0
0
0
0
0
0
0
0
0
0
0
0
0
0
0
0
0
0
0
0
0
0
0
0
0
0
0
0
0
0
0
0
0
2
4
9
17
24
32
43
57
69
79
82
85
86
87
89
91
96
98
100
105
108
112
116
117
121
123
125
127
130
141
153
167
178
186
192
205
222
229
236
0
0
204
200
169
145
94
60
23
0
0
0
0
0
0
0
0
0
0
0
0
0
0
0
0
0
0
0
0
0
0
0
0
0
0
0
0
0
0
0
0
0
0
0
0
0
0
0
0
0
0
1
2
4
8
12
24
34
52
62
75
78
82
84
85
86
88
89
95
96
98
103
107
111
114
117
121
123
125
130
138
149
163
178
183
191
201
213
225
234
0
0
199
196
178
139
97
68
25
0
0
0
0
0
0
0
0
0
0
0
0
0
0
0
0
0
0
0
0
0
0
0
0
0
0
0
0
0
0
0
0
0
0
0
0
0
0
0
0
0
0
0
0
1
3
8
19
29
46
60
67
75
78
81
83
84
85
87
88
94
95
97
102
108
111
114
117
121
122
128
136
149
163
177
182
188
197
212
223
234
0
0
189
184
189
138
105
73
25
0
0
0
0
0
0
0
0
0
0
0
0
0
0
0
0
0
0
0
0
0
0
0
0
0
0
0
0
0
0
0
0
0
0
0
0
0
0
0
0
0
0
0
0
1
2
8
21
32
47
56
65
69
76
78
80
83
84
85
87
88
93
94
96
102
107
111
114
116
119
126
135
147
161
173
181
187
193
209
219
227
0
0
176
177
181
146
108
72
25
0
0
0
0
0
0
0
0
0
0
0
0
0
0
0
0
0
0
0
0
0
0
0
0
0
0
0
0
0
0
0
0
0
0
0
0
0
0
0
0
0
0
0
0
2
4
12
24
37
48
54
58
62
68
76
77
80
83
84
84
86
88
91
94
96
101
107
112
115
117
122
131
146
158
170
178
184
190
202
215
216
0
0
177
173
177
139
110
73
25
0
0
0
0
0
0
0
0
0
0
0
0
0
0
0
0
0
0
0
0
0
0
0
0
0
0
0
0
0
0
0
0
0
0
0
0
0
0
0
0
0
0
0
1
3
9
17
34
45
51
52
54
59
61
70
76
78
80
82
82
84
85
87
91
93
96
101
108
111
115
120
128
139
154
169
176
183
189
200
213
215
0
0
171
188
180
147
100
68
23
0
0
0
0
0
0
0
0
0
0
0
0
0
0
0
0
0
0
0
0
0
0
0
0
0
0
0
0
0
0
0
0
0
0
0
0
0
0
0
0
0
0
0
3
6
11
24
41
53
58
55
50
51
57
62
70
75
76
78
80
79
81
83
86
90
94
97
102
110
112
118
127
139
153
167
176
181
186
200
210
216
0
0
176
194
179
144
103
65
23
0
0
0
0
0
0
0
0
0
0
0
0
0
0
0
0
0
0
0
0
0
0
0
0
0
0
0
0
0
0
0
0
0
0
0
0
0
0
0
0
0
0
0
3
7
16
30
45
58
63
59
51
49
51
59
61
67
74
72
72
74
76
78
82
86
88
95
99
104
110
116
125
137
152
165
172
178
184
197
213
223
49
0
192
188
176
150
105
69
23
0
0
0
0
0
0
0
0
0
0
0
0
0
0
0
0
0
0
0
0
0
0
0
0
0
0
0
0
0
0
0
0
0
0
0
0
0
0
0
0
0
0
0
3
7
17
30
47
58
63
60
54
50
51
52
60
63
68
68
68
68
70
73
76
81
86
89
95
102
106
112
123
135
150
162
171
177
186
196
210
223
62
0
197
194
182
154
108
69
23
0
0
0
0
0
0
0
0
0
0
0
0
0
0
0
0
0
0
0
0
0
0
0
0
0
0
0
0
0
0
0
0
0
0
0
0
0
0
0
0
0
0
0
3
8
17
27
42
54
58
58
55
53
52
54
57
62
61
63
64
63
64
69
73
77
81
89
93
99
103
110
118
130
146
159
170
176
182
196
211
218
67
0
193
185
170
145
104
64
21
0
0
0
0
0
0
0
0
0
0
0
0
0
0
0
0
0
0
0
0
0
0
0
0
0
0
0
0
0
0
0
0
0
0
0
0
0
0
0
0
0
0
0
3
6
13
25
36
46
52
55
56
54
57
55
59
60
63
61
62
63
64
66
70
72
79
83
91
97
101
105
115
125
142
155
165
171
178
190
206
213
68
0
172
166
153
132
92
61
21
0
0
0
0
0
0
0
0
0
0
0
0
0
0
0
0
0
0
0
0
0
0
0
0
0
0
0
0
0
0
0
0
0
0
0
0
0
0
0
0
0
0
0
1
3
10
19
30
38
44
51
51
56
55
58
58
60
58
59
61
62
63
65
68
70
76
80
87
94
100
104
112
123
135
149
160
167
173
184
196
204
67
0
176
163
140
117
81
57
21
0
0
0
0
0
0
0
0
0
0
0
0
0
0
0
0
0
0
0
0
0
0
0
0
0
0
0
0
0
0
0
0
0
0
0
0
0
0
0
0
0
0
0
0
2
6
13
23
30
38
47
53
55
55
55
54
53
56
55
55
58
59
61
67
68
69
78
85
92
96
103
109
119
130
143
154
160
166
175
186
198
61
0
165
161
140
113
88
60
21
0
0
0
0
0
0
0
0
0
0
0
0
0
0
0
0
0
0
0
0
0
0
0
0
0
0
0
0
0
0
0
0
0
0
0
0
0
0
0
0
0
0
0
0
1
5
9
17
25
31
41
48
53
51
51
52
50
49
49
48
51
53
56
57
63
67
74
81
89
95
98
106
117
126
136
146
151
159
165
181
192
57
0
151
142
129
110
84
60
21
0
0
0
0
0
0
0
0
0
0
0
0
0
0
0
0
0
0
0
0
0
0
0
0
0
0
0
0
0
0
0
0
0
0
0
0
0
0
0
0
0
0
0
0
0
2
6
11
17
27
35
42
44
46
46
47
48
44
44
44
42
44
48
52
57
61
70
77
86
92
98
101
111
119
130
138
145
148
159
175
189
49
0
149
129
124
111
78
51
16
0
0
0
0
0
0
0
0
0
0
0
0
0
0
0
0
0
0
0
0
0
0
0
0
0
0
0
0
0
0
0
0
0
0
0
0
0
0
0
0
0
0
0
0
0
1
4
8
12
19
26
32
38
40
42
42
41
42
42
40
39
40
43
47
54
57
61
73
84
91
94
98
107
115
126
133
138
143
155
164
176
45
0
144
137
129
103
67
45
16
0
0
0
0
0
0
0
0
0
0
0
0
0
0
0
0
0
0
0
0
0
0
0
0
0
0
0
0
0
0
0
0
0
0
0
0
0
0
0
0
0
0
0
0
0
0
2
4
7
12
18
23
29
32
33
38
40
41
40
39
37
38
43
48
51
53
58
68
82
90
93
96
103
112
122
132
134
140
148
157
170
44
0
153
136
125
97
61
40
13
0
0
0
0
0
0
0
0
0
0
0
0
0
0
0
0
0
0
0
0
0
0
0
0
0
0
0
0
0
0
0
0
0
0
0
0
0
0
0
0
0
0
0
0
0
0
0
2
4
7
10
16
20
24
27
32
38
39
40
37
39
39
45
48
49
49
55
66
79
87
90
94
103
113
121
127
132
136
146
150
156
47
0
164
145
128
95
63
37
13
0
0
0
0
0
0
0
0
0
0
0
0
0
0
0
0
0
0
0
0
0
0
0
0
0
0
0
0
0
0
0
0
0
0
0
0
0
0
0
0
0
0
0
0
0
0
0
1
2
4
6
10
12
17
20
26
31
35
36
37
37
43
47
44
45
45
49
59
73
82
85
89
101
111
121
127
130
133
140
150
167
45
0
169
155
138
104
72
44
19
0
0
0
0
0
0
0
0
0
0
0
0
0
0
0
0
0
0
0
0
0
0
0
0
0
0
0
0
0
0
0
0
0
0
0
0
0
0
0
0
0
0
0
0
0
0
0
0
1
0
3
5
6
9
13
18
25
28
30
34
36
39
42
42
40
39
42
51
61
72
77
85
96
106
117
124
129
133
141
156
168
40
0
181
159
134
96
67
45
16
0
0
0
0
0
0
0
0
0
0
0
0
0
0
0
0
0
0
0
0
0
0
0
0
0
0
0
0
0
0
0
0
0
0
0
0
0
0
0
0
0
0
0
0
0
0
0
0
0
0
0
0
1
4
8
11
15
21
22
23
26
26
29
28
27
28
31
40
50
59
68
76
88
101
110
120
125
132
144
160
168
37
0
172
153
131
105
73
48
16
0
0
0
0
0
0
0
0
0
0
0
0
0
0
0
0
0
0
0
0
0
0
0
0
0
0
0
0
0
0
0
0
0
0
0
0
0
0
0
0
0
0
0
0
0
0
0
0
0
0
0
0
0
2
4
4
9
11
13
15
15
18
16
18
14
17
21
27
34
43
51
61
76
89
100
111
122
131
151
171
179
26
0
163
140
109
93
72
51
16
0
0
0
0
0
0
0
0
0
0
0
0
0
0
0
0
0
0
0
0
0
0
0
0
0
0
0
0
0
0
0
0
0
0
0
0
0
0
0
0
0
0
0
0
0
0
0
0
0
0
0
0
0
0
0
2
4
5
5
8
9
9
9
8
9
10
11
12
21
27
37
46
56
71
81
94
111
128
153
175
184
17
0
156
142
108
87
67
50
19
0
0
0
0
0
0
0
0
0
0
0
0
0
0
0
0
0
0
0
0
0
0
0
0
0
0
0
0
0
0
0
0
0
0
0
0
0
0
0
0
0
0
0
0
0
0
0
0
0
0
0
0
0
0
0
1
1
2
2
3
4
4
4
4
4
3
5
7
10
14
19
26
38
48
58
73
98
120
150
175
171
9
0
151
134
108
78
64
47
19
0
0
0
0
0
0
0
0
0
0
0
0
0
0
0
0
0
0
0
0
0
0
0
0
0
0
0
0
0
0
0
0
0
0
0
0
0
0
0
0
0
0
0
0
0
0
0
0
0
0
0
0
0
0
0
0
0
0
0
1
0
0
0
2
1
2
3
2
3
4
7
11
19
25
33
51
80
107
134
163
178
2
0
135
116
106
80
56
44
19
0
0
0
0
0
0
0
0
0
0
0
0
0
0
0
0
0
0
0
0
0
0
0
0
0
0
0
0
0
0
0
0
0
0
0
0
0
0
0
0
0
0
0
0
0
0
0
0
0
0
0
0
0
0
0
0
0
0
0
0
0
0
0
1
0
0
0
0
1
1
1
3
7
9
14
34
68
87
120
152
175
0
0
121
115
101
74
54
40
16
0
0
0
0
0
0
0
0
0
0
0
0
0
0
0
0
0
0
0
0
0
0
0
0
0
0
0
0
0
0
0
0
0
0
0
0
0
0
0
0
0
0
0
0
0
0
0
0
0
0
0
0
0
0
0
0
0
0
0
0
0
0
0
0
0
0
0
0
0
0
0
1
2
2
4
25
61
85
112
139
154
0
0
124
126
114
73
53
40
13
0
0
0
0
0
0
0
0
0
0
0
0
0
0
0
0
0
0
0
0
0
0
0
0
0
0
0
0
0
0
0
0
0
0
0
0
0
0
0
0
0
0
0
0
0
0
0
0
0
0
0
0
0
0
0
0
0
0
0
0
0
0
0
0
0
0
0
0
0
0
0
0
0
0
1
23
52
81
109
112
133
0
0
139
126
109
95
69
48
19
0
0
0
0
0
0
0
0
0
0
0
0
0
0
0
0
0
0
0
0
0
0
0
0
0
0
0
0
0
0
0
0
0
0
0
0
0
0
0
0
0
0
0
0
0
0
0
0
0
0
0
0
0
0
0
0
0
0
0
0
0
0
0
0
0
0
0
0
0
0
0
0
0
0
0
21
53
84
109
103
122
0
0
137
140
127
105
81
57
21
0
0
0
0
0
0
0
0
0
0
0
0
0
0
0
0
0
0
0
0
0
0
0
0
0
0
0
0
0
0
0
0
0
0
0
0
0
0
0
0
0
0
0
0
0
0
0
0
0
0
0
0
0
0
0
0
0
0
0
0
0
0
0
0
0
0
0
0
0
0
0
0
0
0
0
19
52
90
119
108
131
0
0
135
150
150
114
84
60
21
0
0
0
0
0
0
0
0
0
0
0
0
0
0
0
0
0
0
0
0
0
0
0
0
0
0
0
0
0
0
0
0
0
0
0
0
0
0
0
0
0
0
0
0
0
0
0
0
0
0
0
0
0
0
0
0
0
0
0
0
0
0
0
0
0
0
0
0
0
0
0
0
0
0
0
19
51
77
107
119
129
0
0
151
145
154
114
93
63
21
0
0
0
0
0
0
0
0
0
0
0
0
0
0
0
0
0
0
0
0
0
0
0
0
0
0
0
0
0
0
0
0
0
0
0
0
0
0
0
0
0
0
0
0
0
0
0
0
0
0
0
0
0
0
0
0
0
0
0
0
0
0
0
0
0
0
0
0
0
0
0
0
0
0
0
19
47
70
101
129
133
0
0
157
159
150
123
96
65
23
0
0
0
0
0
0
0
0
0
0
0
0
0
0
0
0
0
0
0
0
0
0
0
0
0
0
0
0
0
0
0
0
0
0
0
0
0
0
0
0
0
0
0
0
0
0
0
0
0
0
0
0
0
0
0
0
0
0
0
0
0
0
0
0
0
0
0
0
0
0
0
0
0
0
0
16
48
70
108
153
169
0
0
179
175
170
131
95
64
23
0
0
0
0
0
0
0
0
0
0
0
0
0
0
0
0
0
0
0
0
0
0
0
0
0
0
0
0
0
0
0
0
0
0
0
0
0
0
0
0
0
0
0
0
0
0
0
0
0
0
0
0
0
0
0
0
0
0
0
0
0
0
0
0
0
0
0
0
0
0
0
0
0
0
0
19
51
73
105
152
177
0
0
200
198
177
138
99
69
23
0
0
0
0
0
0
0
0
0
0
0
0
0
0
0
0
0
0
0
0
0
0
0
0
0
0
0
0
0
0
0
0
0
0
0
0
0
0
0
0
0
0
0
0
0
0
0
0
0
0
0
0
0
0
0
0
0
0
0
0
0
0
0
0
0
0
0
0
0
0
0
0
0
0
0
19
48
73
115
141
169
0
0
220
205
169
147
106
69
25
0
0
0
0
0
0
0
0
0
0
0
0
0
0
0
1
1
0
0
0
0
0
0
0
0
0
0
0
0
0
0
0
0
0
0
0
0
0
0
0
0
0
0
0
0
0
0
0
0
0
0
0
0
0
0
0
0
0
0
0
0
0
0
0
0
0
0
0
0
0
0
0
0
0
0
16
47
75
116
146
167
0
0
228
197
167
142
98
68
23
0
0
0
0
0
0
0
0
0
0
0
0
1
2
3
3
3
2
2
1
0
0
0
0
0
0
0
0
0
0
0
0
0
0
0
0
0
0
0
0
0
0
0
0
0
0
0
0
0
0
0
0
0
0
0
0
0
0
0
0
0
0
0
0
0
0
0
0
0
0
0
0
0
0
0
16
42
67
116
144
169
0
0
213
208
177
136
97
60
21
0
0
0
0
0
0
0
0
0
0
1
2
4
6
8
9
9
7
5
3
1
0
0
0
0
0
0
0
0
0
0
0
0
0
0
0
0
0
0
0
0
0
0
0
0
0
0
0
0
0
0
0
0
0
0
0
0
0
0
0
0
0
0
0
0
0
0
0
0
0
0
0
0
0
0
16
45
70
99
133
168
0
0
193
194
163
127
86
56
21
0
0
0
0
0
0
0
0
0
1
3
5
9
13
17
18
18
14
12
7
6
3
2
2
1
1
0
0
0
0
0
0
0
0
0
0
0
0
0
0
0
0
0
0
0
0
0
0
0
0
0
0
0
0
0
0
0
0
0
0
0
0
0
0
0
0
0
0
0
0
0
0
0
0
0
16
54
77
101
130
139
0
0
186
180
164
111
75
50
19
0
0
0
0
0
0
0
0
0
2
5
10
17
23
30
31
31
26
22
16
13
10
8
6
4
2
1
0
0
0
0
0
0
0
0
0
0
0
0
0
0
0
0
0
0
0
0
0
0
0
0
0
0
0
0
0
0
0
0
0
0
0
0
0
0
0
0
0
0
0
0
0
0
0
0
16
56
88
117
123
140
0
0
186
185
166
109
72
44
16
0
0
0
0
0
0
0
0
1
4
9
17
26
37
43
47
46
43
35
28
23
20
16
13
10
6
3
1
0
0
0
0
0
0
0
0
0
0
0
0
0
0
0
0
0
0
0
0
0
0
0
0
0
0
0
0
0
0
0
0
0
0
0
0
0
0
0
0
0
0
0
0
0
0
0
19
56
89
121
138
157
0
0
186
193
173
115
80
45
16
0
0
0
0
0
0
0
0
2
6
13
23
37
50
58
63
62
58
50
42
38
35
30
25
19
14
7
3
1
0
0
0
0
0
0
0
0
0
0
0
0
0
0
0
0
0
0
0
0
0
0
0
0
0
0
0
0
0
0
0
0
0
0
0
0
0
0
0
0
0
0
0
0
0
0
19
54
88
123
148
162
0
0
187
190
184
122
79
50
16
0
0
0
0
0
0
0
0
3
8
17
30
43
59
69
75
73
68
61
58
54
52
48
41
33
22
14
6
2
1
0
0
0
0
0
0
0
0
0
0
0
0
0
0
0
0
0
0
0
0
0
0
0
0
0
0
0
0
0
0
0
0
0
0
0
0
0
0
0
0
0
0
0
0
0
21
54
83
127
153
177
0
0
184
190
173
125
81
51
19
0
0
0
0
0
0
0
1
3
9
18
31
48
63
75
80
79
73
69
68
67
66
63
58
47
34
21
11
4
1
0
0
0
0
0
0
0
0
0
0
0
0
0
0
0
0
0
0
0
0
0
0
0
0
0
0
0
0
0
0
0
0
0
0
0
0
0
0
0
0
0
0
0
0
0
19
58
91
129
156
168
0
0
182
181
153
124
83
51
19
0
0
0
0
0
0
0
1
3
9
18
32
47
63
73
79
78
76
74
74
75
77
75
69
59
44
28
16
7
2
0
0
0
0
0
0
0
0
0
0
0
0
0
0
0
0
0
0
0
0
0
0
0
0
0
0
0
0
0
0
0
0
0
0
0
0
0
0
0
0
0
0
0
0
0
19
58
89
127
149
154
0
0
194
182
137
111
80
50
19
0
0
0
0
0
0
0
0
2
7
15
27
45
60
69
75
76
77
77
78
79
81
80
76
66
51
35
20
9
3
0
0
0
0
0
0
0
0
0
0
0
0
0
0
0
0
0
0
0
0
0
0
0
0
0
0
0
0
0
0
0
0
0
0
0
0
0
0
0
0
0
0
0
0
0
19
53
88
128
158
160
0
0
198
178
133
110
69
47
19
0
0
0
0
0
0
0
0
2
5
12
24
38
53
64
72
76
78
79
80
80
81
81
78
70
57
39
23
11
3
0
0
0
0
0
0
0
0
0
0
0
0
0
0
0
0
0
0
0
0
0
0
0
0
0
0
0
0
0
0
0
0
0
0
0
0
0
0
0
0
0
0
0
0
0
21
56
81
123
156
168
0
0
171
160
123
100
74
50
21
0
0
0
0
0
0
0
0
1
3
8
18
31
46
59
69
76
80
81
80
81
81
81
79
71
58
40
24
12
4
0
0
0
0
0
0
0
0
0
0
0
0
0
0
0
0
0
0
0
0
0
0
0
0
0
0
0
0
0
0
0
0
0
0
0
0
0
0
0
0
0
0
0
0
0
21
53
83
120
158
174
0
0
155
159
127
113
85
57
21
0
0
0
0
0
0
0
0
0
1
6
13
25
37
54
67
76
80
81
80
81
81
81
78
70
57
39
23
10
3
0
0
0
0
0
0
0
0
0
0
0
0
0
0
0
0
0
0
0
0
0
0
0
0
0
0
0
0
0
0
0
0
0
0
0
0
0
0
0
0
0
0
0
0
0
21
56
83
120
146
160
0
0
155
151
137
114
91
58
19
0
0
0
0
0
0
0
0
0
0
3
9
19
32
47
60
71
77
79
79
80
80
80
76
67
52
35
20
9
3
0
0
0
0
0
0
0
0
0
0
0
0
0
0
0
0
0
0
0
0
0
0
0
0
0
0
0
0
0
0
0
0
0
0
0
0
0
0
0
0
0
0
0
0
0
21
53
85
121
131
153
0
0
152
148
140
119
84
56
19
0
0
0
0
0
0
0
0
0
0
1
6
12
23
37
52
62
69
73
75
76
77
75
70
59
45
28
16
7
2
0
0
0
0
0
0
0
0
0
0
0
0
0
0
0
0
0
0
0
0
0
0
0
0
0
0
0
0
0
0
0
0
0
0
0
0
0
0
0
0
0
0
0
0
0
21
53
78
114
125
136
0
0
156
164
147
115
86
58
21
0
0
0
0
0
0
0
0
0
0
1
3
8
15
25
37
47
55
60
65
67
67
65
58
48
33
20
11
4
1
0
0
0
0
0
0
0
0
0
0
0
0
0
0
0
0
0
0
0
0
0
0
0
0
0
0
0
0
0
0
0
0
0
0
0
0
0
0
0
0
0
0
0
0
0
19
50
81
117
132
136
0
0
167
168
149
123
84
56
21
0
0
0
0
0
0
0
0
0
0
0
1
4
8
15
23
32
39
45
49
52
52
49
43
33
22
13
6
2
1
0
0
0
0
0
0
0
0
0
0
0
0
0
0
0
0
0
0
0
0
0
0
0
0
0
0
0
0
0
0
0
0
0
0
0
0
0
0
0
0
0
0
0
0
0
19
53
72
88
116
138
0
0
173
178
163
125
88
61
21
0
0
0
0
0
0
0
0
0
0
0
0
2
4
8
13
18
23
28
31
33
33
31
26
19
13
7
3
1
0
0
0
0
0
0
0
0
0
0
0
0
0
0
0
0
0
0
0
0
0
0
0
0
0
0
0
0
0
0
0
0
0
0
0
0
0
0
0
0
0
0
0
0
0
0
19
47
63
73
95
125
0
0
168
179
173
133
95
65
23
0
0
0
0
0
0
0
0
0
0
0
0
0
2
3
5
9
11
14
17
18
18
16
13
10
6
3
1
0
0
0
0
0
0
0
0
0
0
0
0
0
0
0
0
0
0
0
0
0
0
0
0
0
0
0
0
0
0
0
0
0
0
0
0
0
0
0
0
0
0
0
0
0
0
0
16
39
54
69
79
115
0
0
164
180
162
138
98
67
23
0
0
0
0
0
0
0
0
0
0
0
0
0
0
1
2
3
4
5
6
7
8
7
6
4
2
1
0
0
0
0
0
0
0
0
0
0
0
0
0
0
0
0
0
0
0
0
0
0
0
0
0
0
0
0
0
0
0
0
0
0
0
0
0
0
0
0
0
0
0
0
0
0
0
0
10
29
48
75
86
104
0
0
166
188
169
141
100
64
23
0
0
0
0
0
0
0
0
0
0
0
0
0
0
0
0
0
1
2
1
2
2
2
2
1
1
0
0
0
0
0
0
0
0
0
0
0
0
0
0
0
0
0
0
0
0
0
0
0
0
0
0
0
0
0
0
0
0
0
0
0
0
0
0
0
0
0
0
0
0
0
0
0
0
0
10
27
51
80
103
122
0
0
175
193
178
139
97
64
21
0
0
0
0
0
0
0
0
0
0
0
0
0
0
0
0
0
0
0
0
0
0
0
0
0
0
0
0
0
0
0
0
0
0
0
0
0
0
0
0
0
0
0
0
0
0
0
0
0
0
0
0
0
0
0
0
0
0
0
0
0
0
0
0
0
0
0
0
0
0
0
0
0
0
0
10
25
51
87
108
120
0
0
183
192
167
137
93
63
18
0
0
0
0
0
0
0
0
0
0
0
0
0
0
0
0
0
0
0
0
0
0
0
0
0
0
0
0
0
0
0
0
0
0
0
0
0
0
0
0
0
0
0
0
0
0
0
0
0
0
0
0
0
0
0
0
0
0
0
0
0
0
0
0
0
0
0
0
0
0
0
0
0
0
0
10
29
53
92
108
138
0
0
183
177
159
128
87
61
15
0
0
0
0
0
0
0
0
0
0
0
0
0
0
0
0
0
0
0
0
0
0
0
0
0
0
0
0
0
0
0
0
0
0
0
0
0
0
0
0
0
0
0
0
0
0
0
0
0
0
0
0
0
0
0
0
0
0
0
0
0
0
0
0
0
0
0
0
0
0
0
0
0
0
0
10
29
53
93
112
137
0
0
160
169
156
123
84
47
13
0
0
0
0
0
0
0
0
0
0
0
0
0
0
0
0
0
0
0
0
0
0
0
0
0
0
0
0
0
0
0
0
0
0
0
0
0
0
0
0
0
0
0
0
0
0
0
0
0
0
0
0
0
0
0
0
0
0
0
0
0
0
0
0
0
0
0
0
0
0
0
0
0
0
0
13
35
61
91
108
125
0
0
158
163
151
113
69
45
19
0
0
0
0
0
0
0
0
0
0
0
0
0
0
0
0
0
0
0
0
0
0
0
0
0
0
0
0
0
0
0
0
0
0
0
0
0
0
0
0
0
0
0
0
0
0
0
0
0
0
0
0
0
0
0
0
0
0
0
0
0
0
0
0
0
0
0
0
0
0
0
0
0
0
0
16
44
64
88
108
128
0
0
164
159
148
117
68
44
16
0
0
0
0
0
0
0
0
0
0
0
0
0
0
0
0
0
0
0
0
0
0
0
0
0
0
0
0
0
0
0
0
0
0
0
0
0
0
0
0
0
0
0
0
0
0
0
0
0
0
0
0
0
0
0
0
0
0
0
0
0
0
0
0
0
0
0
0
0
0
0
0
0
0
0
16
47
64
84
93
114
0
0
165
159
157
123
78
47
16
0
0
0
0
0
0
0
0
0
0
0
0
0
0
0
0
0
0
0
0
0
0
0
0
0
0
0
0
0
0
0
0
0
0
0
0
0
0
0
0
0
0
0
0
0
0
0
0
0
0
0
0
0
0
0
0
0
0
0
0
0
0
0
0
0
0
0
0
0
0
0
0
0
0
0
16
39
54
74
84
112
0
0
173
169
158
126
80
45
16
0
0
0
0
0
0
0
0
0
0
0
0
0
0
0
0
0
0
0
0
0
0
0
0
0
0
0
0
0
0
0
0
0
0
0
0
0
0
0
0
0
0
0
0
0
0
0
0
0
0
0
0
0
0
0
0
0
0
0
0
0
0
0
0
0
0
0
0
0
0
0
0
0
0
0
13
40
56
79
115
140
0
0
203
177
167
130
89
54
19
0
0
0
0
0
0
0
0
0
0
0
0
0
0
0
0
0
0
0
0
0
0
0
0
0
0
0
0
0
0
0
0
0
0
0
0
0
0
0
0
0
0
0
0
0
0
0
0
0
0
0
0
0
0
0
0
0
0
0
0
0
0
0
0
0
0
0
0
0
0
0
0
0
0
0
16
45
72
105
132
154
0
0
203
181
173
143
96
68
33
19
19
19
21
21
23
21
21
23
23
23
23
21
21
21
23
23
23
23
19
21
19
19
21
21
21
21
23
23
21
21
21
19
19
19
19
16
19
21
21
21
21
23
23
21
19
21
21
21
19
16
16
13
16
16
19
19
19
19
19
19
16
19
19
16
19
19
21
25
23
23
21
19
16
16
29
58
78
116
147
165
0
0
195
181
172
140
113
94
65
57
51
50
54
56
57
56
56
64
70
75
68
64
64
64
67
63
64
64
64
63
63
57
57
51
56
58
63
65
63
63
60
54
50
48
50
51
54
60
61
67
65
61
57
54
53
50
48
47
51
51
44
40
40
42
48
47
47
48
48
50
44
39
42
40
51
54
57
64
68
63
60
60
56
56
65
81
101
135
155
181
0
0
198
192
167
160
138
118
92
83
75
78
81
77
80
81
85
93
107
110
108
106
100
98
99
103
108
108
101
107
98
93
81
81
85
79
85
89
91
96
93
81
70
73
78
85
86
88
95
100
99
88
77
72
64
69
63
58
69
68
74
65
54
60
61
73
69
64
74
73
72
60
50
56
65
83
89
97
101
101
94
96
95
93
86
108
121
145
169
194
0
0
201
188
192
178
173
155
133
125
113
115
118
107
104
110
113
124
138
153
161
165
170
173
173
181
187
187
180
181
173
164
152
146
145
137
145
145
149
151
143
119
109
110
125
125
134
132
132
146
136
122
111
91
95
94
97
96
90
102
103
103
90
83
80
100
105
104
108
111
97
87
78
75
87
112
132
146
156
146
138
138
140
124
124
120
134
153
177
200
0
0
197
198
201
198
187
181
166
150
137
138
134
134
127
117
118
129
148
181
198
201
199
196
203
208
214
211
198
199
194
183
174
159
150
138
150
154
158
171
173
174
174
170
180
184
187
187
181
182
175
174
171
158
148
139
143
146
139
159
152
146
137
118
123
131
129
137
131
117
100
95
94
103
124
137
150
167
173
172
169
177
177
164
152
142
138
161
173
181
0
0
197
204
209
215
204
205
177
156
155
154
159
149
135
121
133
125
134
179
207
208
214
219
224
218
218
215
201
204
204
188
187
173
161
145
125
146
159
172
190
194
198
201
211
200
194
198
197
196
196
192
192
171
153
159
164
176
172
175
174
171
181
172
169
158
164
166
146
121
117
122
129
123
140
153
154
180
177
172
186
198
204
191
176
159
142
162
152
155
0
0
0
0
0
0
0
0
0
0
0
0
0
0
0
0
0
0
0
0
0
0
0
0
0
0
0
0
0
0
0
0
0
0
0
0
0
0
0
0
0
0
0
0
0
0
0
0
0
0
0
0
0
0
0
0
0
0
0
0
0
0
0
0
0
0
0
0
0
0
0
0
0
0
0
0
0
0
0
0
0
0
0
0
0
0
0
0
0
0
0
